<svg width="1355.99" height="1369.46" xmlns="http://www.w3.org/2000/svg">

 <g>
  <title>Layer 1</title>
  <path id="svg_1" stroke-miterlimit="10" stroke="#9f85bd" fill="#7a5ca3" d="m769.42,539.83c-2.21,12.31 -4.32,24.64 -6.48,37c0.73,0.66 1.37,1.69 2.21,1.91c7.12,1.82 13.49,5.21 19.68,9c0.36,-0.26 0.85,-0.44 1.08,-0.78q5.79,-8.76 11.56,-17.53l-22.37,-60.2c-1.9,10.2 -3.85,20.39 -5.68,30.6z" class="cls-1"/>
  <path id="svg_2" stroke-miterlimit="10" stroke="#9f85bd" fill="#7a5ca3" d="m808.67,553.35a7,7 0 0 0 -1.41,1.22q-4.9,7.42 -9.79,14.86l1.62,4.35q2.45,-4.32 4.82,-8.68a54.66,54.66 0 0 0 4.76,-11.75z" class="cls-1"/>
  <path id="svg_3" fill="#c084fc" stroke-miterlimit="10" d="m868.8,761.36l-69.71,-187.58a273.86,273.86 0 0 1 -17.82,27.73c-5.2,7 -10.07,14.28 -15.64,21c-7.62,9.16 -15.67,18 -23.71,26.78a150.53,150.53 0 0 1 -12.49,12.39c-6.83,5.9 -13.87,11.57 -21,17.06a38,38 0 0 1 -25.43,7.69a43.56,43.56 0 0 1 -29.11,-12.93c-5.36,-5.28 -10.77,-10.53 -15.76,-16.14a411.18,411.18 0 0 1 -43.3,-58.36c-3.63,-5.91 -6.91,-12 -10,-18.24c-4.6,-9.15 -9,-18.41 -13.29,-27.7c-1.45,-3.13 -2.38,-6.49 -3.55,-9.75l0.82,-0.34l20.71,37.21a37.82,37.82 0 0 1 4.47,-2.94a54.07,54.07 0 0 1 18.52,-5.45c-1.06,-11 -2.21,-21.9 -3.17,-32.86c-1.09,-12.33 -2,-24.68 -3,-37a23.07,23.07 0 0 0 -1.2,-4.21l-1.82,0.46l2.73,3.07c-2.51,0.31 -4,0.6 -5.39,0.65c-6.32,0.23 -15.09,21.17 -21.4,21.49c-8.79,0.44 -13.66,-16.49 -19,-9.81c-7,8.67 -13.31,17.85 -19.84,26.87c-10.19,14.07 -17,29.8 -22.57,46.16a13.92,13.92 0 0 0 0.9,11.77c2.9,5.29 5.59,10.7 8.65,15.89c9.5,16.14 19,32.26 29.92,47.51c5.7,8 11.16,16.14 17.29,23.76c5.65,7 12,13.43 18.12,20.12c1.24,1.36 2.78,2.63 1.82,5.26a14.63,14.63 0 0 1 -2.46,-1.65c-6.47,-6.72 -13.26,-13.17 -19.26,-20.29a429.16,429.16 0 0 1 -34.37,-47.65c-8.29,-13.15 -16.18,-26.55 -22.59,-40.76c-1.42,-3.14 -2.22,-3.43 -4.91,-1c-6.42,5.68 -12.71,11.51 -19,17.36c-5.61,5.24 -11.1,10.6 -16.65,15.9l-20.56,19.64c-4.24,4.05 -8.42,8.17 -12.7,12.17c-8.58,8 -17.23,15.94 -25.8,24c-6.48,6.07 -12.87,12.23 -19.33,18.32c-8,7.52 -16.43,14.63 -24,22.6c-9.21,9.77 -16.74,20.56 -21.72,33.48c-12.05,31.27 -25.12,62.16 -36.15,93.83c-4.22,12.11 -8.75,24.1 -12.89,36.23q-7.74,22.68 -15.05,45.5q-9,28 -17.64,56.06c-4.36,14.26 -8.5,28.6 -12.55,43c-4.26,15.08 -8.25,30.24 -12.51,45.33c-0.69,2.46 -0.16,4 1.8,5.41l0.63,0.47c1.47,0.1 2.9,0.26 4.3,0.48a43.29,43.29 0 0 1 15.41,-2.71c1,0 1.92,0.09 2.87,0.14c0.79,0 1.52,-0.14 2.33,-0.14c15.7,0 26.82,7.06 33.43,17.08c8.56,2 17.11,4.23 25.68,6.5c26.73,7 52,9.22 79.53,11.27c60.82,4.53 121.45,11.1 181.9,19.19q9.68,1.29 19.34,2.52a40.65,40.65 0 0 1 23,-6.66c31.79,-0.12 63.49,-0.9 95,1.47c21.36,-4.59 43.26,-5.53 65.19,-6.17c4.84,-1.33 9.59,-2.55 14.21,-3.37c22.27,-4 44.2,-3.28 66.68,-3.81c2.22,0 4.41,-0.2 6.59,-0.37c0.79,-0.14 1.57,-0.31 2.36,-0.45c-0.58,-0.29 -1.19,-0.53 -1.76,-0.85c-8.5,-4.83 -17.09,-9.57 -25.17,-15c-7.85,-5.31 -15.15,-11.44 -22.57,-17.34a5.9,5.9 0 0 1 -2.1,-3.69a24.07,24.07 0 0 1 0.66,-6.69c2.25,-10.45 4.48,-20.91 7,-31.31s5.15,-20.46 7.82,-30.67c3.8,-14.59 7.44,-29.22 11.58,-43.71c4.71,-16.51 9.76,-32.93 14.91,-49.31c6.72,-21.42 13.72,-42.75 20.52,-64.14c0.9,-2.83 1.31,-5.81 1.94,-8.72c-12.75,-17.62 -15.55,-36.9 -9.59,-57.61c3,-10.62 9.14,-19.65 15.24,-28.68c6.75,-10 14,-19.74 19.91,-30.25c14.22,-25.76 -47.47,54.39 -54.25,25.49zm-403.57,230.33q17.5,22.47 34.61,45.25c2.94,3.94 5,8.53 7.42,12.87a5.79,5.79 0 0 1 -0.81,6.78a18.32,18.32 0 0 1 -5,4.46a42.23,42.23 0 0 1 -8.78,3.5c-8.67,2.4 -17.44,4.47 -26.13,6.85s-17.56,5 -26.34,7.58l-0.09,0.92c4.27,-0.72 8.53,-1.54 12.82,-2.15c6.11,-0.87 12.23,-1.6 18.36,-2.35c7.32,-0.9 14.63,-1.92 22,-2.59c11.44,-1 22.9,-1.84 34.36,-2.71c3.41,-0.25 5.28,0.51 5.36,2s-1.92,3 -4.77,3.38c-0.15,0 -0.3,0 -0.45,0q-21.84,2.14 -43.68,4.3c-12.16,1.22 -24.3,2.5 -36.45,3.76a5.39,5.39 0 0 0 -0.9,0.1c-8.82,2.47 -18,1.93 -27,2.92c-3.1,0.34 -5.4,-0.91 -5.52,-2.8c-0.18,-2.81 2.32,-3.31 4.21,-4c5.55,-1.88 11.13,-3.73 16.78,-5.28c17.66,-4.84 35.38,-9.46 53,-14.35a80.84,80.84 0 0 0 11.32,-4.41c2.93,-1.32 3.21,-2.39 2,-5.33a19.44,19.44 0 0 0 -2,-4c-7.71,-10.6 -15.24,-21.34 -23.27,-31.69c-13.59,-17.49 -27.59,-34.67 -41.25,-52.1c-3.33,-4.25 -6,-9 -9,-13.48a2.83,2.83 0 0 1 0,-3.73a3.26,3.26 0 0 1 4,-1.24a14.09,14.09 0 0 1 3.85,2.28c4.16,3.72 8.22,7.54 12.28,11.36c2.41,2.28 4.76,4.61 7.1,7c5.31,5.33 10.55,10.72 15.9,16c5.13,5.08 10.44,10 15.53,15.13c8,8.12 15.86,16.46 23.95,24.53a263.38,263.38 0 0 1 23.36,26.93a10.75,10.75 0 0 1 1.06,2.36l-1.18,1c-0.85,-1.06 -1.64,-2.18 -2.56,-3.18c-4.09,-4.41 -8.13,-8.88 -12.35,-13.16c-7.48,-7.62 -15.06,-15.15 -22.66,-22.66c-3.43,-3.39 -7.05,-6.58 -10.5,-9.94c-6.36,-6.2 -12.65,-12.46 -19,-18.68q-10,-9.81 -20,-19.57a8.68,8.68 0 0 0 -4.58,-2.9c8.77,10.86 17.04,20.84 25,31.04zm77.26,48c-3.1,-1.39 -4.56,-4.26 -6.12,-6.92c-10.16,-17.32 -20.19,-34.71 -30.39,-52c-4.45,-7.54 -9.3,-14.83 -13.8,-22.34c-5.74,-9.57 -11.2,-19.3 -17,-28.85q-19.79,-32.77 -39.77,-65.44q-7.67,-12.57 -15.5,-25q-15.65,-24.93 -31.36,-49.8c-5.72,-9.06 -11.49,-18.08 -17.21,-27.13c-1.68,-2.65 -3.25,-5.36 -4.87,-8l0.8,-0.66a58.19,58.19 0 0 1 4.77,5.31c9.43,13.45 18.93,26.84 28.09,40.48c8.91,13.26 17.5,26.75 26.11,40.22q11.26,17.44 22.2,35.17q15.56,25.27 30.88,50.63c6.39,10.6 12.54,21.34 18.82,32q11.83,20.11 23.69,40.2q9.42,16 18.76,32c1.06,1.82 2,3.73 2.9,5.63c0.78,1.66 1,3.21 -1,4.48l0,0.02zm106.19,-63.69c-4.17,0.35 -5.49,-0.8 -6,-5.37q-1.68,-15.63 -3.34,-31.43c-1.7,-16.05 -2.16,-32.19 -4.48,-48.22c-2.49,-17.16 -2.44,-34.6 -5,-51.82c-2.37,-16.1 -2.61,-32.45 -4.61,-48.65c-3.06,-24.86 -4.71,-49.9 -6.95,-74.85c-0.26,-2.86 -0.31,-5.75 -0.71,-8.59c-0.65,-4.58 -1.52,-9.13 -2.34,-14l-7.94,0.09a5.15,5.15 0 0 1 3.06,-2.61c8.06,-1.84 16.06,-1.7 23.81,1.47a23.67,23.67 0 0 1 5,2.91c0.51,0.37 0.48,1.5 0.69,2.28c-0.78,0.11 -1.67,0.51 -2.34,0.28c-2.07,-0.71 -4.06,-1.66 -6.08,-2.51l-1.07,0.79c0.12,1.63 0.21,3.26 0.38,4.88c1.57,15 2.54,30 4.15,45.06c3.38,31.52 4.83,63.23 8.43,94.76c1.57,13.8 2.06,27.73 3.37,41.58c1.59,16.82 2.08,33.72 4.59,50.49c1.84,12.23 2.14,24.69 3,37c0.42,4.24 -1.39,6.14 -5.62,6.46zm118.83,4.4c-3.82,0.17 -5.78,-2 -6.26,-6.58c-1,-9.89 -1.71,-19.81 -3,-29.7c-2.5,-19.45 -3.76,-39 -5.69,-58.58c-1.34,-13.5 -1.9,-27.06 -3.84,-40.55c-2.51,-17.46 -2.5,-35.2 -5.07,-52.72c-2.27,-15.51 -2.13,-31.28 -4.52,-46.85c-2.15,-14 -3,-28.2 -4.38,-42.31c-0.12,-1.17 -0.35,-2.33 -0.56,-3.7l-9.13,2l-0.67,-0.92c0.57,-0.88 0.94,-2.16 1.75,-2.58a21.15,21.15 0 0 1 6.27,-2.37a51.1,51.1 0 0 1 11.74,-0.86c4.13,0.35 8.19,1.72 12.25,2.75c0.58,0.14 1,0.9 1.76,1.64c-3.14,1.84 -5.89,-0.64 -9.13,0.34c0.12,1.46 0.21,3.07 0.37,4.67c1.56,15.47 2.45,31 4.33,46.43c3.31,27.27 4.27,54.77 7.26,82.12c4.11,37.68 5.39,75.64 9.87,113.31c1.06,8.85 1.47,17.78 2.12,26.68c0.37,4.99 -1.56,7.64 -5.47,7.82l0,-0.04z" class="cls-2"/>
  <path id="svg_4" stroke-miterlimit="10" stroke="#9f85bd" fill="#7a5ca3" d="m600.7,501.71c1.44,-0.06 2.88,-0.34 5.39,-0.66l-2.73,-3.05" class="cls-1"/>
  <path id="svg_5" stroke-miterlimit="10" stroke="#a855f7" fill="#a855f7" d="m592.73,705.46c-6.07,-6.68 -12.47,-13.1 -18.11,-20.12c-6.14,-7.62 -11.6,-15.78 -17.3,-23.75c-10.89,-15.26 -20.42,-31.38 -29.92,-47.51c-3.06,-5.2 -5.74,-10.61 -8.65,-15.89a13.94,13.94 0 0 1 -0.9,-11.78c5.55,-16.36 12.38,-32.09 22.57,-46.16c6.53,-9 12.87,-18.2 19.85,-26.86l0.41,-4.43c-21.89,23 -39,48.85 -47.52,79.81a11,11 0 0 1 -3.22,5.28c-15.67,14.67 -31.37,29.32 -46.9,44.14q-43.31,41.32 -86.42,82.87c-9,8.72 -17.73,17.85 -23.82,29c-3.77,6.89 -7.15,14 -10.29,21.2c-14,32.16 -25.95,65.12 -37.38,98.27c-21.43,62.15 -41.05,124.86 -58.2,188.33c-2.56,9.47 -4.8,19 -7.39,28.49a5,5 0 0 0 -0.09,2.44c1.37,-0.12 2.76,-0.21 4.21,-0.21c1.21,0 2.35,0.09 3.5,0.17l-0.87,-0.66c-2,-1.43 -2.49,-3 -1.8,-5.41c4.26,-15.08 8.25,-30.25 12.51,-45.33c4.06,-14.36 8.19,-28.69 12.56,-43q8.6,-28.1 17.63,-56.06q7.33,-22.81 15.05,-45.5c4.14,-12.13 8.68,-24.12 12.89,-36.22c11,-31.68 24.1,-62.56 36.15,-93.84c5,-12.92 12.51,-23.71 21.72,-33.47c7.52,-8 15.95,-15.09 23.95,-22.61c6.46,-6.08 12.85,-12.25 19.33,-18.31c8.57,-8 17.23,-15.94 25.8,-24c4.29,-4 8.47,-8.13 12.7,-12.18l20.57,-19.64c5.54,-5.3 11,-10.65 16.64,-15.89c6.26,-5.86 12.55,-11.69 19,-17.37c2.69,-2.38 3.49,-2.09 4.91,1c6.41,14.21 14.3,27.61 22.59,40.77a428,428 0 0 0 34.38,47.65c6,7.12 12.78,13.57 19.25,20.29a15.3,15.3 0 0 0 2.46,1.64c0.93,-2.52 -0.58,-3.78 -1.85,-5.15z" class="cls-1"/>
  <path id="svg_6" stroke-width="2.28px" stroke-miterlimit="10" stroke="#a855f7" fill="#a855f7" d="m440.29,1078.81c8.78,-2.53 17.53,-5.16 26.34,-7.58s17.46,-4.45 26.13,-6.85a41.68,41.68 0 0 0 8.78,-3.5a18.12,18.12 0 0 0 5,-4.45a5.8,5.8 0 0 0 0.81,-6.79c-2.39,-4.34 -4.47,-8.93 -7.42,-12.87q-17.06,-22.82 -34.61,-45.24c-8,-10.21 -16.21,-20.19 -25,-31a8.62,8.62 0 0 1 4.58,2.9q10,9.75 20,19.56c6.33,6.22 12.62,12.49 19,18.68c3.46,3.37 7.08,6.56 10.5,10q11.4,11.25 22.67,22.65c4.21,4.29 8.25,8.75 12.34,13.17c0.92,1 1.71,2.11 2.56,3.17l1.19,-1a11.47,11.47 0 0 0 -1.06,-2.36a263.52,263.52 0 0 0 -23.42,-26.88c-8.09,-8.08 -15.91,-16.41 -24,-24.54c-5.09,-5.13 -10.4,-10 -15.53,-15.13c-5.35,-5.29 -10.59,-10.68 -15.9,-16c-2.34,-2.35 -4.69,-4.68 -7.1,-6.95c-4.06,-3.83 -8.12,-7.65 -12.28,-11.36a13.56,13.56 0 0 0 -3.85,-2.28a3.25,3.25 0 0 0 -4,1.23a2.86,2.86 0 0 0 0,3.74c3,4.5 5.71,9.23 9,13.47c13.67,17.43 27.66,34.61 41.25,52.11c8,10.34 15.57,21.08 23.27,31.69a19.19,19.19 0 0 1 2,4c1.22,2.94 0.94,4 -2,5.32a79.22,79.22 0 0 1 -11.32,4.42c-17.65,4.88 -35.37,9.51 -53,14.35c-5.65,1.55 -11.23,3.39 -16.77,5.28c-1.89,0.64 -4.4,1.14 -4.22,4c0.12,1.89 2.42,3.14 5.52,2.79c9,-1 17.84,-1.55 27,-2.91a6.7,6.7 0 0 1 0.9,-0.11c12.15,-1.25 24.3,-2.53 36.45,-3.76q21.84,-2.19 43.68,-4.3l0.45,0c2.85,-0.44 4.86,-1.86 4.77,-3.38s-2,-2.27 -5.36,-2c-11.45,0.86 -22.92,1.66 -34.36,2.7c-7.35,0.67 -14.66,1.7 -22,2.59c-6.13,0.75 -12.25,1.49 -18.36,2.35c-4.29,0.61 -8.55,1.43 -12.82,2.16l0.19,-1.09z" class="cls-3"/>
  <path id="svg_7" stroke-width="2.28px" stroke-miterlimit="10" stroke="#a855f7" fill="#a855f7" d="m366.62,754c1.61,2.68 3.19,5.39 4.86,8c5.72,9 11.5,18.07 17.21,27.13q15.71,24.89 31.36,49.8q7.81,12.47 15.5,25q19.93,32.7 39.77,65.44c5.77,9.55 11.22,19.28 17,28.85c4.5,7.51 9.35,14.81 13.8,22.34c10.2,17.29 20.23,34.69 30.39,52c1.57,2.66 3,5.53 6.12,6.93c2,-1.28 1.78,-2.82 1,-4.43c-0.92,-1.89 -1.83,-3.8 -2.89,-5.62q-9.35,-16.05 -18.77,-32.05q-11.82,-20.11 -23.69,-40.2c-6.28,-10.67 -12.43,-21.42 -18.82,-32q-15.32,-25.38 -30.88,-50.62q-10.92,-17.73 -22.16,-35.27c-8.61,-13.47 -17.2,-26.95 -26.11,-40.22c-9.16,-13.63 -18.66,-27 -28.09,-40.47a58.3,58.3 0 0 0 -4.77,-5.32l-0.83,0.71z" class="cls-3"/>
  <path id="svg_8" fill="#c084fc" stroke-miterlimit="10" d="m634.58,1136.37c31.79,-0.12 63.49,-0.9 95,1.47c21.36,-4.59 43.26,-5.53 65.19,-6.17c4.84,-1.33 9.59,-2.55 14.21,-3.37c22.27,-4 44.2,-3.28 66.68,-3.81c2.22,0 4.41,-0.2 6.59,-0.37q17.22,-3 34.27,-7c25.3,-7.92 49,-20.14 75.91,-26a45.47,45.47 0 0 1 14.38,-0.9c9,-2.79 18,-5.41 27.09,-7.56c12.2,-2.89 24.73,-4.28 37,-6.74a151.53,151.53 0 0 0 16,-3.74c3.67,-1.16 7.8,-4.9 4.41,-1.42a36.54,36.54 0 0 1 14.95,-9.13c-2,-7.55 -4.11,-15.09 -6.24,-22.62c-4,-14.35 -8.19,-28.69 -12.55,-43q-8.61,-28.1 -17.64,-56q-7.34,-22.82 -15.05,-45.5c-4.14,-12.13 -8.67,-24.13 -12.89,-36.23c-11,-31.68 -24.1,-62.56 -36.15,-93.84c-5,-12.92 -12.51,-23.7 -21.72,-33.47c-7.52,-8 -16,-15.08 -23.94,-22.61c-6.47,-6.08 -12.85,-12.25 -19.34,-18.31c-8.57,-8 -17.22,-15.94 -25.8,-24c-4.28,-4 -8.46,-8.12 -12.7,-12.18l-20.56,-19.64c-5.55,-5.3 -11,-10.65 -16.65,-15.89c-6.26,-5.86 -12.55,-11.68 -19,-17.36c-2.69,-2.39 -3.49,-2.1 -4.91,1c-6.41,14.2 -14.3,27.61 -22.59,40.76a429.16,429.16 0 0 1 -34.37,47.65c-6,7.12 -12.79,13.57 -19.26,20.29a14.67,14.67 0 0 1 -2.46,1.64c-1,-2.63 0.58,-3.89 1.82,-5.26c6.07,-6.68 12.47,-13.09 18.12,-20.12c6.13,-7.62 11.59,-15.78 17.29,-23.75c10.89,-15.26 20.42,-31.38 29.92,-47.51c3.06,-5.19 5.75,-10.61 8.65,-15.89a13.94,13.94 0 0 0 0.9,-11.78c-5.55,-16.36 -12.38,-32.08 -22.57,-46.16c-6.53,-9 -12.87,-18.19 -19.84,-26.86a28.75,28.75 0 0 0 -21.38,-10.99c-6.31,-0.32 -12.64,-0.38 -19,-0.61c-1.44,-0.06 -2.88,-0.34 -5.39,-0.65l2.73,-3.08l-1.82,-0.46a23.53,23.53 0 0 0 -1.2,4.21c-1.06,12.33 -2,24.67 -3,37c-1,11 -2.1,21.91 -3.17,32.87a53.85,53.85 0 0 1 18.5,5.43a36.53,36.53 0 0 1 4.47,2.93q10.37,-18.6 20.71,-37.21l0.82,0.34c-1.17,3.26 -2.1,6.63 -3.55,9.76c-4.3,9.29 -8.69,18.55 -13.29,27.7c-3.11,6.19 -6.39,12.33 -10,18.23a410,410 0 0 1 -43.27,58.39c-5,5.62 -10.4,10.87 -15.76,16.14a43.47,43.47 0 0 1 -29.13,12.93a38,38 0 0 1 -25.43,-7.7c-7.16,-5.49 -14.2,-11.16 -21,-17.07a150.41,150.41 0 0 1 -12.49,-12.38c-8.08,-8.77 -16.08,-17.62 -23.72,-26.77c-5.57,-6.7 -10.44,-14 -15.64,-21a299.4,299.4 0 0 1 -22.63,-36.4a54.26,54.26 0 0 1 -4.77,-11.76a7.29,7.29 0 0 1 1.41,1.22q10.69,16.19 21.35,32.39c0.23,0.35 0.72,0.53 1.08,0.79c6.19,-3.84 12.56,-7.22 19.68,-9c0.84,-0.21 1.48,-1.25 2.21,-1.9c-2.15,-12.32 -4.27,-24.65 -6.48,-37c-1.83,-10.21 -3.78,-20.4 -5.68,-30.6c-7.59,0.86 -15.17,2 -22.79,2.51c-7.23,0.46 -13,3.76 -18,8.4a33,33 0 0 0 -5.54,7.07q-8.32,13.47 -16.35,27.11c-2.3,3.89 -4.35,7.93 -6.46,11.93c-4.4,8.3 -6.65,17.38 -9.3,26.31c-1,3.3 -1.8,6.66 -2.51,10a10.7,10.7 0 0 0 1.52,9c7.54,10.93 14.8,21.93 22.32,32.82c2.74,4 5.79,7.71 8.85,11.43c9.9,12 19.58,24.17 29.94,35.76c6.69,7.48 14.43,14 21.66,21c1.45,1.41 2.71,3 4.29,4.78c-2.54,1.16 -3.75,-0.16 -4.94,-1.15c-11.19,-9.41 -22,-19.2 -31.35,-30.51c-3.17,-3.82 -7,-7.11 -10.08,-11c-7.49,-9.42 -14.69,-19.08 -22.09,-28.58a267,267 0 0 1 -21,-32c-1.25,-2.2 -2.68,-2.48 -4.85,-1.77l-61.21,123.31c5.87,10.51 13.16,20.24 19.91,30.24c6.1,9 12.19,18.06 15.24,28.68c6,20.71 3.16,40 -9.59,57.61c0.63,2.91 1,5.9 1.94,8.72c6.8,21.4 46.6,38.06 53.33,59.48c5.15,16.38 4.27,39.19 9,55.7c4.14,14.49 40.09,34.45 43.89,49c2.67,10.21 13.82,62 16.27,72.32s-62.92,-27.85 -60.67,-17.4a24.14,24.14 0 0 1 0.66,6.7a6,6 0 0 1 -2.09,3.69c-7.43,5.9 -14.73,12 -22.57,17.33c-8.09,5.48 -16.68,10.22 -25.18,15c-1.42,0.81 -2.91,1.47 -4.39,2.14q61.4,5.86 122.56,14.06q9.68,1.29 19.34,2.52a40.65,40.65 0 0 1 22.93,-6.58zm302.7,-48.31c-9,-1 -18.14,-0.45 -27,-2.91a5.27,5.27 0 0 0 -0.9,-0.11c-12.15,-1.25 -24.29,-2.54 -36.45,-3.76q-21.83,-2.19 -43.68,-4.3c-0.15,0 -0.3,0 -0.45,0c-2.85,-0.43 -4.85,-1.85 -4.77,-3.38s2,-2.26 5.36,-2c11.46,0.86 22.92,1.66 34.36,2.7c7.35,0.67 14.66,1.69 22,2.59c6.13,0.75 12.26,1.48 18.36,2.35c4.29,0.61 8.55,1.43 12.83,2.16l-0.09,-0.93c-8.78,-2.53 -17.54,-5.17 -26.35,-7.58s-17.45,-4.45 -26.13,-6.85a41.68,41.68 0 0 1 -8.78,-3.5a18.45,18.45 0 0 1 -5,-4.45a5.8,5.8 0 0 1 -0.8,-6.79c2.38,-4.34 4.47,-8.93 7.41,-12.87q17.06,-22.82 34.61,-45.25c8,-10.2 16.21,-20.18 25,-31a8.68,8.68 0 0 0 -4.58,2.9q-10,9.75 -20,19.57c-6.34,6.22 -12.63,12.48 -19,18.68c-3.45,3.36 -7.07,6.56 -10.5,9.94q-11.4,11.27 -22.66,22.66c-4.22,4.29 -8.26,8.75 -12.35,13.16c-0.92,1 -1.71,2.12 -2.55,3.18l-1.19,-1a11,11 0 0 1 1.06,-2.36a263.42,263.42 0 0 1 23.41,-26.88c8.09,-8.08 15.91,-16.42 24,-24.54c5.08,-5.13 10.39,-10 15.53,-15.13c5.34,-5.29 10.59,-10.68 15.9,-16c2.33,-2.35 4.69,-4.68 7.09,-6.95c4.06,-3.83 8.13,-7.65 12.28,-11.37a14.35,14.35 0 0 1 3.85,-2.28a3.27,3.27 0 0 1 4,1.24a2.84,2.84 0 0 1 0,3.73c-3,4.5 -5.71,9.23 -9,13.48c-13.66,17.43 -27.65,34.61 -41.24,52.1c-8,10.35 -15.57,21.09 -23.27,31.69a19.07,19.07 0 0 0 -2,4c-1.22,2.94 -0.94,4 2,5.32a79.29,79.29 0 0 0 11.33,4.41c17.64,4.89 35.37,9.51 53,14.36c5.65,1.54 11.22,3.39 16.77,5.28c1.89,0.64 4.39,1.14 4.21,4c-0.23,1.79 -2.53,3.03 -5.62,2.69zm-123.73,-51.37c0.92,-1.9 1.84,-3.8 2.9,-5.62q9.34,-16 18.76,-32.06q11.84,-20.1 23.69,-40.19c6.28,-10.67 12.43,-21.42 18.83,-32q15.3,-25.39 30.87,-50.63q10.92,-17.71 22.16,-35.26c8.61,-13.47 17.2,-26.95 26.11,-40.22c9.16,-13.63 18.66,-27 28.09,-40.48a58.19,58.19 0 0 1 4.77,-5.31l0.8,0.66c-1.62,2.69 -3.19,5.4 -4.87,8.05c-5.72,9 -11.49,18.07 -17.21,27.13q-15.71,24.88 -31.36,49.8q-7.82,12.47 -15.5,25q-19.93,32.69 -39.77,65.44c-5.76,9.55 -11.22,19.28 -17,28.85c-4.5,7.51 -9.35,14.8 -13.8,22.34c-10.2,17.29 -20.23,34.68 -30.39,52c-1.56,2.66 -3,5.53 -6.12,6.92c-1.96,-1.27 -1.74,-2.81 -0.96,-4.42z" class="cls-4"/>
  <path stroke="#a855f7" id="svg_9" fill="#a855f7" d="m775.4,503.93a28.7,28.7 0 0 1 21.48,11.07c7,8.67 13.32,17.85 19.84,26.87c10.19,14.07 17,29.8 22.57,46.16a13.88,13.88 0 0 1 -0.9,11.77c-2.9,5.29 -5.59,10.7 -8.64,15.9c-9.51,16.13 -19,32.25 -29.93,47.51c-5.69,8 -11.16,16.13 -17.29,23.75c-5.65,7 -12,13.44 -18.12,20.12c-1.24,1.37 -2.78,2.63 -1.82,5.26a15.3,15.3 0 0 0 2.46,-1.64c6.47,-6.73 13.26,-13.18 19.26,-20.3a428.22,428.22 0 0 0 34.37,-47.65c8.3,-13.15 16.18,-26.55 22.59,-40.76c1.42,-3.14 2.22,-3.43 4.91,-1.05c6.42,5.68 12.71,11.51 19,17.36c5.61,5.24 11.1,10.6 16.65,15.9l20.56,19.64c4.24,4 8.42,8.17 12.7,12.17c8.58,8 17.23,15.94 25.8,24c6.49,6.06 12.87,12.23 19.34,18.31c8,7.52 16.43,14.63 23.94,22.6c9.21,9.77 16.75,20.56 21.72,33.48c12,31.28 25.12,62.16 36.15,93.83c4.22,12.11 8.75,24.1 12.89,36.23q7.74,22.68 15,45.5q9,28 17.64,56.06c4.36,14.26 8.5,28.6 12.55,43c2.13,7.54 4.82,19.79 6.89,27.35c1.33,-0.44 3.63,1.55 4.67,-1.54c-0.09,-0.34 -1.4,-5 -1.49,-5.3c-17.15,-63.47 -36.77,-126.18 -58.2,-188.33c-11.43,-33.15 -23.35,-66.11 -37.38,-98.27c-3.14,-7.2 -6.52,-14.32 -10.29,-21.2c-6.09,-11.12 -14.8,-20.25 -23.82,-29q-43,-41.61 -86.42,-82.87c-15.53,-14.82 -31.23,-29.47 -46.89,-44.15a10.74,10.74 0 0 1 -3.22,-5.27c-8.52,-31 -25.64,-56.81 -47.53,-79.81c-5.15,-5.42 -11.07,-9.2 -18.79,-9.83c-7.95,-0.65 -15.85,-2.23 -23.89,-1.15l-2.73,3.07c2.51,0.31 4,0.6 5.4,0.65c6.33,0.18 12.66,0.24 18.97,0.56z" class="cls-5"/>
  <path id="svg_10" fill="#dec1b6" d="m579.48,506.67c1,-0.68 1.85,-1.19 1.37,-2.82c-0.75,-2.55 -1.05,-5.23 -1.55,-7.85c1.39,1.13 2.83,2.22 4.17,3.41a362.58,362.58 0 0 0 37.68,29.66c5.41,3.66 11.1,6.77 17.81,7.26c5.25,0.39 10.5,0.82 15.76,1.12c13.32,0.78 26.48,-0.63 39.59,-2.94a35.35,35.35 0 0 0 16.77,-7.51c8,-6.66 15.88,-13.48 23.47,-20.6c6.37,-6 12.26,-12.44 18.37,-18.69c-0.47,2.94 -1,5.86 -1.37,8.81a9.07,9.07 0 0 0 0.41,2.58a22.26,22.26 0 0 0 -1.19,4.21c-1.07,12.33 -2,24.67 -3,37c-1,11 -2.1,21.91 -3.17,32.86c-0.11,1.3 -0.23,2.6 -0.35,3.9q-0.42,4.93 -0.85,9.89l-2.35,0.27a3.72,3.72 0 0 1 -0.22,-0.77l5,-65.59a3.42,3.42 0 0 0 -0.07,-0.9c0,-0.1 -0.16,-0.21 -0.27,-0.27a3.47,3.47 0 0 0 -0.64,-0.13c-0.45,0.66 -1,1.37 -1.45,2.12a79.38,79.38 0 0 1 -24.5,25a74.23,74.23 0 0 1 -40.21,12.31c-7.62,0.1 -15.35,-1.1 -22.88,-2.52c-14.77,-2.79 -27.82,-9.64 -40.06,-18.18a119.69,119.69 0 0 1 -26.7,-25.45c-0.61,-0.79 -1.4,-1.44 -2.69,-2.76c0.11,1.82 0.08,2.83 0.24,3.8c1.53,9.21 3.1,18.42 4.63,27.63q3.4,20.49 6.77,41c0.42,2.53 1,5 1.2,7.58c0.11,1.48 0.65,3.58 -2,3.76l-2,-10.12c-0.35,-1.82 -0.71,-3.65 -1.07,-5.47c-2.15,-12.32 -4.27,-24.65 -6.48,-37c-1.83,-10.21 -3.78,-20.4 -5.68,-30.59c0.03,-1.89 0.13,-3.78 -2.49,-4.01z" class="cls-6"/>
  <path id="svg_11" fill="#706154" d="m752.92,487.74c-6.11,6.25 -12,12.73 -18.37,18.69c-7.59,7.12 -15.47,13.94 -23.47,20.6a35.35,35.35 0 0 1 -16.77,7.48c-13.11,2.31 -26.27,3.72 -39.59,2.94c-5.26,-0.3 -10.51,-0.73 -15.76,-1.12c-6.71,-0.49 -12.4,-3.6 -17.81,-7.26a362.58,362.58 0 0 1 -37.68,-29.66c-1.34,-1.19 -2.78,-2.28 -4.17,-3.41l-18.82,-16.3l-2.48,-2.7c-2.13,-4.46 -4.68,-8.76 -6.31,-13.39c-3.65,-10.39 -4.74,-21.36 -6.58,-32.15c-0.19,-1.18 -0.37,-2.36 -0.56,-3.55l4,-2.46c3.33,0.79 4.44,3.09 5.37,6.28c4.48,15.32 11.75,29.07 24.16,39.58c5.52,4.67 11,9.47 16.79,13.75c10.07,7.41 20,15.17 31.28,20.67c10.45,5.07 21.07,9.84 33,10.1a8.1,8.1 0 0 1 2.41,0.88c-2,0.52 -4,1.62 -5.94,1.43a65.8,65.8 0 0 1 -13.27,-2.37c-15.31,-4.8 -28.57,-13.48 -41.48,-22.72a267.7,267.7 0 0 1 -29.63,-24.39a58.39,58.39 0 0 1 -13.68,-20c-2.35,-5.68 -3.76,-11.75 -5.54,-17.67c-0.52,-1.74 -0.8,-3.62 -3.78,-3.34a31.4,31.4 0 0 0 0.29,3.39c0.47,2.52 1,5 1.59,7.52c2.09,8.63 4.05,17.3 6.44,25.84a23.58,23.58 0 0 0 4.33,8.38a115.94,115.94 0 0 0 12.37,13.22c15.21,13.52 30.81,26.58 47.61,38.11c8.07,5.54 16.81,9.16 26.76,10a173,173 0 0 0 36.47,-1a53.88,53.88 0 0 0 28.66,-12.34a437.58,437.58 0 0 0 34.77,-32.34c6.21,-6.55 12.49,-13.07 18.27,-20a33.58,33.58 0 0 0 5.7,-10.65a82.54,82.54 0 0 0 3,-14.07c1.24,-8.27 2.2,-16.6 3.3,-25.08c-2.5,-0.07 -3.12,1 -3.44,2.72c-0.88,4.57 -1.84,9.12 -2.85,13.66a59.55,59.55 0 0 1 -14.79,27.57a279.81,279.81 0 0 1 -28.79,27.42c-9.46,7.76 -19.18,15.1 -30.14,20.66c-5.51,2.8 -10.95,5.82 -17.29,6.37c-2.81,0.24 -5.67,0.84 -8.15,-1.19c0.95,-0.31 1.88,-0.66 2.84,-0.92c4.94,-1.32 10.08,-2.13 14.77,-4.06a103.68,103.68 0 0 0 16.88,-8.72c14.38,-9.31 27,-20.87 39.45,-32.54a85.64,85.64 0 0 0 26.36,-48.47c0.64,-3.48 2.78,-4.76 5.84,-5.29l2.66,1.83c-0.1,1.3 -0.2,2.61 -0.29,3.91c-0.66,8.1 -1.1,16.22 -2,24.28c-0.83,7.16 -2.45,14.18 -6.22,20.49c-1,1.45 -1.93,2.89 -2.89,4.33l-16.83,17.06z" class="cls-7"/>
  <path id="svg_12" fill="#a855f7" d="m614.55,703.08c-3.3,-0.73 -5.85,1.94 -9.12,0.34c0.7,-0.79 1.07,-1.58 1.63,-1.77c4,-1.33 7.92,-3 12,-3.65a50.91,50.91 0 0 1 11.77,0a21.19,21.19 0 0 1 6.43,1.89c0.84,0.36 1.3,1.61 1.94,2.45l-0.6,1l-9.26,-1.37c-0.11,1.38 -0.25,2.56 -0.28,3.74c-0.36,14.17 -0.11,28.39 -1.21,42.51c-1.22,15.7 0.1,31.42 -1,47.06c-1.26,17.66 0.07,35.36 -1.12,52.95c-0.93,13.6 -0.47,27.16 -0.8,40.73c-0.47,19.61 -0.26,39.26 -1.3,58.84c-0.53,10 -0.47,19.89 -0.76,29.83c-0.14,4.63 -1.94,6.92 -5.75,7s-6,-2.38 -6,-7.3c0,-8.92 -0.27,-17.85 0.12,-26.76c1.65,-37.9 0.1,-75.84 1.39,-113.73c0.93,-27.49 -0.17,-55 1.1,-82.44c0.72,-15.55 0.45,-31.08 0.85,-46.61c0,-1.63 -0.03,-3.25 -0.03,-4.71z" class="cls-5"/>
  <path id="svg_13" fill="#a855f7" d="m718.3,700.42c-1.91,1.08 -3.77,2.26 -5.75,3.2c-0.64,0.31 -1.56,0 -2.36,0c0.13,-0.8 0,-1.92 0.42,-2.35a24.35,24.35 0 0 1 4.67,-3.48c7.33,-4 15.26,-5.12 23.48,-4.23a5.15,5.15 0 0 1 3.34,2.23l-7.89,0.84c-0.25,4.9 -0.58,9.51 -0.7,14.14c-0.07,2.86 0.22,5.74 0.29,8.61c0.69,25 2,50.1 1.83,75.15c-0.09,16.33 1.57,32.59 1.1,48.86c-0.51,17.4 1.58,34.71 1.11,52c-0.44,16.19 1,32.28 1.17,48.42q0.18,15.82 0.34,31.65c0,4.59 -1.14,5.88 -5.32,6s-6.26,-1.54 -6.45,-5.69c-0.53,-12.38 -1.69,-24.79 -1.29,-37.15c0.54,-16.95 -0.95,-33.79 -1.33,-50.69c-0.31,-13.9 -1.45,-27.79 -1.5,-41.69c-0.11,-31.73 -2.36,-63.39 -2.68,-95.09c-0.15,-15.1 -0.94,-30.16 -1.14,-45.24c0,-1.63 -0.12,-3.26 -0.18,-4.89l-1.16,-0.6z" class="cls-5"/>
  <path id="svg_14" stroke="#a855f7" stroke-width="2.28px" stroke-miterlimit="10" fill="#a855f7" d="m916.86,1080.42c-8.78,-2.53 -17.54,-5.17 -26.35,-7.58s-17.45,-4.45 -26.13,-6.85a41.68,41.68 0 0 1 -8.78,-3.5a18.45,18.45 0 0 1 -5,-4.45a5.8,5.8 0 0 1 -0.8,-6.79c2.38,-4.34 4.47,-8.93 7.41,-12.87q17.06,-22.82 34.61,-45.25c8,-10.2 16.21,-20.18 25,-31a8.68,8.68 0 0 0 -4.58,2.9q-10,9.75 -20,19.57c-6.34,6.22 -12.63,12.48 -19,18.68c-3.45,3.36 -7.07,6.56 -10.5,9.94q-11.4,11.27 -22.66,22.66c-4.22,4.29 -8.26,8.75 -12.35,13.16c-0.92,1 -1.71,2.12 -2.55,3.18l-1.19,-1a11,11 0 0 1 1.06,-2.36a263.42,263.42 0 0 1 23.41,-26.88c8.09,-8.08 15.91,-16.42 24,-24.54c5.08,-5.13 10.39,-10 15.53,-15.13c5.34,-5.29 10.59,-10.68 15.9,-16c2.33,-2.35 4.69,-4.68 7.09,-6.95c4.06,-3.83 8.13,-7.65 12.28,-11.37a14.35,14.35 0 0 1 3.85,-2.28a3.27,3.27 0 0 1 4,1.24a2.84,2.84 0 0 1 0,3.73c-3,4.5 -5.71,9.23 -9,13.48c-13.66,17.43 -27.65,34.61 -41.24,52.1c-8,10.35 -15.57,21.09 -23.27,31.69a19.07,19.07 0 0 0 -2,4c-1.22,2.94 -0.94,4 2,5.32a79.29,79.29 0 0 0 11.33,4.41c17.64,4.89 35.37,9.51 53,14.36c5.65,1.54 11.22,3.39 16.77,5.28c1.89,0.64 4.39,1.14 4.21,4c-0.12,1.89 -2.42,3.13 -5.51,2.79c-9,-1 -18.14,-0.45 -27,-2.91a5.27,5.27 0 0 0 -0.9,-0.11c-12.15,-1.25 -24.29,-2.54 -36.45,-3.76q-21.83,-2.19 -43.68,-4.3c-0.15,0 -0.3,0 -0.45,0c-2.85,-0.43 -4.85,-1.85 -4.77,-3.38s2,-2.26 5.36,-2c11.46,0.86 22.92,1.66 34.36,2.7c7.35,0.67 14.66,1.69 22,2.59c6.13,0.75 12.26,1.48 18.36,2.35c4.29,0.61 8.55,1.43 12.83,2.16l-0.2,-1.03z" class="cls-8"/>
  <path id="svg_15" stroke="#a855f7" stroke-width="2.28px" stroke-miterlimit="10" fill="#a855f7" d="m990.53,755.56c-1.62,2.69 -3.19,5.4 -4.87,8.05c-5.72,9 -11.49,18.07 -17.21,27.13q-15.71,24.88 -31.36,49.8q-7.82,12.47 -15.5,25q-19.93,32.71 -39.77,65.46c-5.76,9.55 -11.22,19.28 -17,28.85c-4.5,7.51 -9.35,14.8 -13.8,22.34c-10.2,17.29 -20.23,34.68 -30.39,52c-1.56,2.66 -3,5.53 -6.12,6.92c-2,-1.27 -1.78,-2.81 -1,-4.42c0.92,-1.9 1.84,-3.8 2.9,-5.62q9.34,-16 18.76,-32.06q11.82,-20.1 23.69,-40.19c6.28,-10.67 12.43,-21.42 18.82,-32q15.32,-25.41 30.92,-50.65q10.92,-17.71 22.16,-35.26c8.61,-13.47 17.2,-26.95 26.11,-40.22c9.16,-13.63 18.66,-27 28.09,-40.48a58.19,58.19 0 0 1 4.77,-5.31l0.8,0.66z" class="cls-8"/>
  <path stroke="#a855f7" id="svg_16" fill="#a855f7" d="m767.55,581.59l20.7,-37.21l0.82,0.34c-1.16,3.26 -2.1,6.63 -3.55,9.75c-4.3,9.3 -8.69,18.55 -13.29,27.7c-3.11,6.2 -6.39,12.34 -10,18.24a412,412 0 0 1 -43.28,58.39c-5,5.61 -10.4,10.86 -15.76,16.14a43.56,43.56 0 0 1 -29.1,12.93a38,38 0 0 1 -25.44,-7.7c-7.16,-5.5 -14.2,-11.17 -21,-17.07a149.12,149.12 0 0 1 -12.5,-12.39c-8,-8.81 -16.09,-17.62 -23.71,-26.78c-5.57,-6.7 -10.44,-14 -15.64,-21a300.29,300.29 0 0 1 -22.63,-36.41a54.48,54.48 0 0 1 -4.77,-11.75a6.7,6.7 0 0 1 1.41,1.22q10.69,16.18 21.35,32.39c0.23,0.35 0.72,0.52 1.09,0.78c0.7,1.28 1.4,2.56 2.11,3.83c4.3,6.16 8.35,12.52 13,18.42c6.49,8.26 13.42,16.17 20.16,24.23l5.78,6.78a259.81,259.81 0 0 0 35.7,33.32c7.65,5.81 16.45,8.82 26.3,8a39,39 0 0 0 23.92,-10.83a260.14,260.14 0 0 0 28.94,-31.77l7.26,-10c1.28,-1.47 2.67,-2.86 3.83,-4.42a397.62,397.62 0 0 0 26.08,-40.83l2.22,-4.3z" class="cls-5"/>
  <path stroke="#a855f7" id="svg_17" fill="#a855f7" d="m495.85,609.21c0.77,-3.44 1.58,-6.94 2.33,-10.45a153,153 0 0 1 15.55,-41.39c7.65,-14.08 16,-27.72 27.09,-39.48a22.68,22.68 0 0 1 11.44,-6.82a146.72,146.72 0 0 1 27.22,-4.4c2.62,0.23 2.53,2.12 2.46,4c-7.59,0.86 -15.17,2 -22.79,2.5c-7.23,0.47 -12.95,3.77 -18,8.4a33,33 0 0 0 -5.55,7.08q-8.33,13.46 -16.35,27.11c-2.3,3.89 -4.35,7.92 -6.46,11.92c-4.39,8.31 -6.65,17.39 -9.3,26.31c-1,3.3 -1.79,6.66 -2.51,10a10.72,10.72 0 0 0 1.52,9c7.58,10.84 14.84,21.9 22.36,32.78c2.74,4 5.79,7.72 8.86,11.43c9.9,12 19.57,24.18 29.93,35.76c6.69,7.49 14.43,14 21.66,21.05c1.45,1.4 2.71,3 4.29,4.77c-2.54,1.17 -3.75,-0.15 -4.94,-1.14c-11.18,-9.41 -22,-19.2 -31.35,-30.52c-3.16,-3.82 -7,-7.1 -10.07,-11c-7.5,-9.42 -14.7,-19.08 -22.1,-28.58a268.36,268.36 0 0 1 -21.05,-32c-1.25,-2.2 -2.68,-2.48 -4.85,-1.76" class="cls-5"/>
  <path id="svg_18" fill="#a855f7" d="m767.55,581.59l-2.19,4.29c0.39,-1.83 -0.66,-2.78 -2.14,-3.42a37.89,37.89 0 0 0 -5.34,-2.22c-4.52,-1.21 -8.77,-3.65 -13.68,-3.14c0.12,-1.3 0.24,-2.6 0.35,-3.9a54.07,54.07 0 0 1 18.52,5.45a38.77,38.77 0 0 1 4.48,2.94z" class="cls-5"/>
  <path id="svg_19" fill="#c8c7c9" d="m574.33,593c-0.71,-1.27 -1.41,-2.55 -2.11,-3.83c6.18,-3.83 12.55,-7.22 19.67,-9c0.85,-0.22 1.48,-1.25 2.21,-1.9c0.36,1.82 0.72,3.65 1.07,5.47c-1.32,0.11 -2.78,-0.08 -3.95,0.39c-4.61,1.87 -9.17,3.86 -13.64,6c-1.26,0.58 -2.18,1.87 -3.25,2.87z" class="cls-9"/>
  <path id="svg_20" fill="#d6cdc4" d="m511.26,455.35a6.83,6.83 0 0 1 -0.75,-6.3c0.89,2.26 1.48,3.73 2.07,5.21l-1.32,1.09z" class="cls-10"/>
  <path id="svg_21" stroke-width="0.5px" stroke="#fde9db" fill="#fde9db" stroke-miterlimit="10" d="m778.49,415.83c-3.06,0.53 -5.2,1.81 -5.84,5.29a85.64,85.64 0 0 1 -26.36,48.47c-12.49,11.67 -25.07,23.23 -39.45,32.54a103.68,103.68 0 0 1 -16.84,8.72c-4.69,1.93 -9.83,2.74 -14.77,4.06c-1,0.26 -1.89,0.61 -2.84,0.92l-1.28,0.19c0.66,-3.31 2.06,-6.51 -0.73,-9.77l-2.05,9.94c-0.71,-3.56 0.22,-7.07 -1.78,-10.68c-1.86,3.66 -0.35,7 -0.75,10.77l-1.27,-2.09c0.17,-2.77 -0.83,-5.09 -2.5,-7.83c-1.12,4.46 -0.86,6.18 1.2,9.82l-1.6,0.53a8.1,8.1 0 0 0 -2.41,-0.88c-12,-0.26 -22.59,-5 -33,-10.1c-11.3,-5.5 -21.21,-13.26 -31.28,-20.67c-5.82,-4.28 -11.27,-9.08 -16.79,-13.75c-12.41,-10.51 -19.68,-24.26 -24.16,-39.58c-0.93,-3.19 -2,-5.49 -5.37,-6.28c-0.69,-1.27 -1.41,-2.52 -2.09,-3.8c-0.86,-1.61 -0.86,-3.82 -3.64,-5c0,1.6 0,2.69 0.09,3.76c0.21,2.38 0.48,4.76 0.73,7.14c-3.64,-1.36 -7.5,-2.31 -10.89,-4.14c-11.18,-6 -19.56,-15 -25.95,-25.87a10.44,10.44 0 0 1 2,-0.81c5.92,-1.1 11.73,-2.59 16.79,-6a86.56,86.56 0 0 0 7.38,-5.89c1,-0.84 1.85,-1.55 3.11,-0.57c2,5.36 3.8,10.84 6.16,16.06c7.8,17.28 22.11,24.1 40.76,23.39c12.59,-0.49 24.22,-5.28 34.51,-12.51a141.26,141.26 0 0 0 18.4,-15.33c8,-7.93 11.46,-18.29 13.55,-29.13c0.63,-3.21 1.23,-6.43 1.92,-10l17.89,-0.58c0.35,1.65 0.58,2.8 0.85,3.94c2.86,12.22 7,23.84 16.45,32.7a89.66,89.66 0 0 0 38.18,21.72c9.94,2.72 19.76,3.32 29.86,0.5c13.09,-3.67 22,-11.66 26.5,-24.37c2.25,-6.38 3.71,-13 5.52,-19.57a36.84,36.84 0 0 1 3.3,2.01c8.18,6.18 17.09,9.95 27.61,8.47c-6.26,14.18 -15.51,25.75 -29.26,33.35a52.21,52.21 0 0 1 -5.39,2.24c-0.17,-2 -0.36,-4 -0.51,-6c-0.11,-1.52 -0.15,-3 -0.23,-4.56c-3.47,2.48 -3.5,5.89 -3.73,9.23zm-184.67,45a7.77,7.77 0 0 0 2.65,-0.83c4.61,-3.71 9.95,-5.36 15.73,-6.11c14.52,-1.89 28.77,-0.26 42.95,2.81a25,25 0 0 0 4.67,0.17c2.32,-0.28 3,-2.27 3.91,-3.94c0.25,-0.49 -0.52,-1.51 -0.82,-2.28c-1.24,-4.57 -5.38,-4.59 -8.77,-5.08a156.74,156.74 0 0 0 -50.5,0.82a40.78,40.78 0 0 0 -10.17,3.61c-2.58,1.25 -4.78,3.26 -4.64,6.65c0.3,3 2.69,3.52 4.99,4.14l0,0.04zm145.46,-8.85c1.15,-3.65 -0.91,-5.74 -3.69,-7.37c-5.26,-3.08 -11.16,-3.89 -17.06,-3.84c-9.65,0.09 -19.34,0.3 -28.95,1.19c-6.42,0.59 -12.74,2.34 -19.07,3.76c-2.17,0.49 -4.45,1.3 -4.83,4.11l-1.47,2.75l4.67,3.86a19.7,19.7 0 0 0 4.31,-0.39c12.15,-3.83 24.46,-6.53 37.28,-6.73c7.85,-0.12 15.38,0.57 22.15,5c3.81,1.79 5.01,1.38 6.66,-2.38l0,0.04zm-96.06,-23.98c2,0.6 3.17,1.23 4.39,1.27c3.14,0.11 6.29,0.05 9.43,-0.1c7,-0.32 14.05,-0.75 21.08,-1.1c1.82,-0.08 3.19,-0.69 3.8,-2.49c-2.51,-4.16 -12.89,-13.57 -16.83,-15.41a5.66,5.66 0 0 0 -5.62,0.24a20.55,20.55 0 0 0 -3.87,3.08c-2.64,2.67 -5.23,5.39 -7.7,8.22c-1.54,1.77 -2.81,3.76 -4.68,6.29zm7.66,45.54a122.56,122.56 0 0 0 30.72,-1.5c9.72,-1.65 19.2,-4.05 27.6,-9.55c2.37,-1.55 3.24,-3.1 2.15,-4.12c-1.69,-1.57 -3.08,-0.08 -4.39,0.78a69.68,69.68 0 0 1 -29.46,10.91a166.17,166.17 0 0 1 -17.5,1.37a74.79,74.79 0 0 1 -37.52,-8.52a7.63,7.63 0 0 0 -2.45,-1.1c-0.76,-0.08 -2,0.2 -2.27,0.72a2.66,2.66 0 0 0 0.38,2.4a8.9,8.9 0 0 0 2.66,1.64c8.84,4.66 18.5,6.13 30.08,6.98l0,-0.01z" class="cls-11"/>
  <path id="svg_23" stroke="#ae865f" fill="#bf9268" stroke-width="0.5px" stroke-miterlimit="10" d="m480.92,286.26c4.16,-8.11 10.81,-13.85 18.2,-18.81c4.2,-2.83 8.64,-5.3 13,-7.93c10.35,0.16 19.07,3.76 25.29,12.31c3.57,4.9 6.34,10.18 6.16,16.52c-3.36,3.43 -6.91,6.69 -8.95,11.18a34.51,34.51 0 0 0 -1.89,22.89c1.52,6.42 3.27,12.79 4.93,19.19a22.18,22.18 0 0 0 -1.5,2.69c-1.23,3 -2.86,5.45 -6.33,6.34a3.76,3.76 0 0 0 -2.13,2.61c-0.89,5.8 -0.87,11.55 2.22,16.86c-0.85,3.2 -3.77,4.54 -6,6.39c-6.57,5.45 -14.31,8.52 -22.58,10.33a13.27,13.27 0 0 1 -2.68,0.05c-1.06,-0.24 -1.53,-0.55 -0.68,-1.71c2.38,-3.22 4.68,-6.51 4.3,-10.84c0,-1 0,-2.06 -0.05,-3.45c-4.94,-0.86 -9.67,0.84 -14.38,0.44s-9.52,-1.3 -14.28,-2c-0.3,-0.47 -0.6,-0.95 -1,-1.58c0.56,-0.06 1,-0.11 1.37,-0.14c14.31,-0.85 24.86,-14.54 18.07,-28.34c-2.33,-4.72 -4.66,-9.42 -6.9,-14.18c-3.87,-8.21 -7.26,-16.56 -6.07,-25.95c0.51,-4.3 1.23,-8.58 1.88,-12.87z" class="cls-12"/>
  <path id="svg_24" stroke="#ae865f" fill="#bf9268" stroke-width="0.5px" stroke-miterlimit="10" d="m535.29,230.37c4.16,-14.93 7.87,-30.05 18,-42.49a55.81,55.81 0 0 1 19.21,-15.49a84.47,84.47 0 0 1 32.6,-8.42c1.2,-0.06 2.41,0.1 3.62,0.16a19.54,19.54 0 0 0 3.13,0.26a8,8 0 0 1 7.59,3.81c2,3 4.55,5.58 6.38,8.63c3.06,5.1 6.55,10 7.44,16.17c0.21,1.49 0.9,2.93 -0.72,4c-0.69,-0.3 -1.37,-0.61 -2.07,-0.89c-3.08,-1.21 -6.11,-2.59 -9.26,-3.56a4.59,4.59 0 0 0 -5.26,1.75c-1.16,1.65 -0.34,3.34 0.81,4.55c2.78,2.92 5.73,5.68 8.67,8.45c1.23,1.16 2.6,2.16 3.9,3.24a8.82,8.82 0 0 1 -4.47,0.23a35.35,35.35 0 0 0 -20.86,1.23c-14.57,5.29 -21.67,15.13 -22.19,30.73c-0.16,4.67 -0.18,9.33 -0.26,14c-2.81,1 -5.6,2 -8.43,3c-9.41,3.06 -18.34,2.72 -26.28,-3.95c-4.42,-3.72 -6.64,-8.87 -8.53,-14.1c-1.31,-3.68 -2.04,-7.54 -3.02,-11.31z" class="cls-12"/>
  <path id="svg_25" stroke="#ae865f" fill="#bf9268" stroke-width="0.5px" stroke-miterlimit="10" d="m671.71,161.77c5.19,-0.78 10.37,-1.9 15.59,-2.25a83.05,83.05 0 0 1 15.77,0.29c13.8,1.75 27,5.58 37.34,15.46c4.65,4.44 9.18,9.36 12.41,14.85c4.94,8.4 8.71,17.49 13,26.29c-2,3.34 -3.82,6.84 -6.11,10a41,41 0 0 1 -20,14.79c-5.68,2 -11.27,1.46 -17,1.05c-0.57,-3.37 -1.19,-6.73 -1.7,-10.11a27.83,27.83 0 0 0 -11.01,-18.48c-11.22,-8.52 -23.6,-9.7 -36.73,-5.18c-1.17,0.4 -2.36,0.77 -4.42,1.44c3.25,-3.3 5.92,-5.74 8.26,-8.45a31.49,31.49 0 0 0 4.51,-6.7c1.49,-3.1 0.22,-5.11 -3.17,-5.13a11.7,11.7 0 0 0 -5.56,1.33c-3.53,2 -6.82,4.35 -10.22,6.57a21.17,21.17 0 0 1 -0.64,-3.82c0.12,-11.57 4.26,-21.96 9.68,-31.95z" class="cls-12"/>
  <path id="svg_26" fill="#a4a19d" d="m529.89,370.11c-3.09,-5.31 -3.11,-11.06 -2.22,-16.86a3.76,3.76 0 0 1 2.13,-2.61c3.47,-0.89 5.1,-3.33 6.33,-6.34a22.18,22.18 0 0 1 1.5,-2.69c3.24,-0.73 3.26,-0.75 3.16,-4.26c0.55,0.11 1.23,0.5 1.64,0.31c2.26,-1.05 4.46,-2.24 6.67,-3.38a7,7 0 0 0 0.91,0.07c12.47,-0.82 25,-1.73 37.43,-2.45c8.58,-0.5 17.17,-0.68 25.76,-1.08c11.14,-0.52 22.27,-1.15 33.41,-1.66c8.74,-0.41 17.47,-0.68 26.21,-1s17.76,-0.85 26.65,-1.18c9.19,-0.35 18.38,-0.56 27.58,-0.86q15.59,-0.51 31.18,-1.06l6.46,-0.29a5.52,5.52 0 0 0 0.81,-0.06l8.51,1.46c0.68,-3 1.32,-5.86 2,-8.72c-0.15,2.19 -0.43,4.38 -0.42,6.57a34.4,34.4 0 0 0 0.62,4.59a14.65,14.65 0 0 1 7.88,7.52c0.87,2 2.09,3.11 4.38,3.17c2.47,0.06 3.85,1.66 4,4a79.57,79.57 0 0 1 0.13,8.46c-0.06,2.24 -0.39,4.48 -0.61,6.71l-3,1.95l-2.36,10.58c-1.81,6.53 -3.27,13.19 -5.52,19.57c-4.47,12.71 -13.41,20.7 -26.5,24.37c-10.1,2.82 -19.92,2.22 -29.86,-0.5a89.66,89.66 0 0 1 -38.18,-21.72c-9.43,-8.86 -13.59,-20.48 -16.45,-32.7c-0.27,-1.14 -0.5,-2.29 -0.85,-3.94l-17.89,0.58c-0.69,3.61 -1.29,6.83 -1.92,10c-2.09,10.84 -5.59,21.2 -13.55,29.13a141.26,141.26 0 0 1 -18.4,15.33c-10.29,7.23 -21.92,12 -34.51,12.51c-18.65,0.71 -33,-6.11 -40.76,-23.39c-2.36,-5.22 -4.13,-10.7 -6.16,-16.06l-3.42,-11c0.39,-3.43 0.17,-3.68 -2.77,-3.07zm117,-16.39a23.54,23.54 0 0 0 -3.71,-11.41c-3.38,-5.18 -7.47,-9.48 -14.58,-9.07c-10.21,0.6 -20.43,0.93 -30.66,1.34s-20.74,0.76 -31.11,1.21a100.3,100.3 0 0 0 -12.15,0.92c-6.68,1.13 -12.29,4.07 -15.68,10.29a27.75,27.75 0 0 0 -3.14,14.24c0.18,12 3.25,23.28 7.94,34.14c4.15,9.6 9.72,18.11 20.09,22.21a47.64,47.64 0 0 0 32.28,1.4c9.07,-2.74 17.05,-7.41 24.78,-12.84c9.11,-6.41 16.35,-14.23 21.16,-24.25a50.06,50.06 0 0 0 5,-23.95l-4.51,-2.27l4.29,-1.96zm26,3c1.07,10.72 4.48,20.51 11.06,29.16c8.81,11.57 20.68,18.94 33.94,24.06c11.58,4.47 23.44,6.32 35.81,2.28c9.56,-3.13 17.12,-8.46 21.58,-17.41a92.43,92.43 0 0 0 9.23,-34.28a75,75 0 0 0 -0.12,-10.38c-0.89,-14.29 -8.28,-20.93 -21,-22.32c-7.7,-0.84 -15.62,0.42 -23.44,0.78c-8.42,0.39 -16.83,0.89 -25.25,1.23c-8.87,0.35 -17.76,0.44 -26.63,0.94a11.79,11.79 0 0 0 -5.75,2.27c-6.6,4.67 -8.81,11.48 -9,19.12l3.79,2.35l-4.22,2.2zm4.7,-25.32c-6.14,0.21 -12.3,0.24 -18.43,0.68s-12.37,0 -19.34,1.38c7.52,5.39 8.93,13.12 11.07,20.16c5.22,-0.12 10,-0.26 14.83,-0.33c3.4,-0.05 3.55,-0.11 4,-3.4c0.96,-6.67 2.72,-12.96 7.89,-18.48l-0.02,-0.01zm-145,22c-2,0.14 -2.5,1.18 -2.48,2.42a33.43,33.43 0 0 0 1.58,11.32l0.89,-0.12c0.07,-4.51 0.07,-9.02 0.07,-13.65l-0.06,0.03zm255.88,1.6l1.24,-0.08c-0.14,-3.76 -0.23,-7.54 -0.49,-11.3c0,-0.5 -0.89,-1 -2,-2.1a95,95 0 0 0 1.25,13.48z" class="cls-13"/>
  <path id="svg_27" fill="#af8760" stroke="#ae865f" stroke-width="0.5px" stroke-miterlimit="10" d="m772.61,466.34c3.77,-6.31 5.39,-13.33 6.22,-20.49c0.93,-8.06 1.37,-16.18 2,-24.28c5.81,-2.49 11.68,-4.78 16.73,-8.82c5.67,-4.54 11.13,-9.32 15.07,-15.4s6.97,-12.35 10.37,-18.55c0.62,-1.13 1.13,-2.31 1.79,-3.68c11.38,17.89 13.24,48.71 -4.2,65.2c-0.58,-7.65 2.65,-15.46 -1.15,-22.8c-3,0.82 -2.94,2.87 -3.25,4.82a117.12,117.12 0 0 1 -2.27,12.4c-3.5,12.88 -11.73,21.9 -23.67,27.52c-4.07,1.91 -8.4,3.26 -12.65,4.76c-1.7,0.6 -3.53,1.05 -4.99,-0.68z" class="cls-14"/>
  <path id="svg_28" fill="#af8760" stroke="#ae865f" stroke-width="0.5px" stroke-miterlimit="10" d="m545.12,431.46c1.84,10.79 2.93,21.76 6.58,32.15c1.63,4.63 4.18,8.93 6.31,13.39c-9.19,0.18 -17.45,-3 -25.37,-7.24c-10.56,-5.68 -17,-14.58 -20.3,-26c-0.83,-2.9 -1.3,-5.9 -2.21,-8.77a11,11 0 0 0 -2.86,-4.31c-3.3,7.73 -0.41,15.3 0,23.46a44.94,44.94 0 0 1 -11.53,-16a48.4,48.4 0 0 1 -4.13,-22.44c0.37,-7.7 1.2,-15.23 3.71,-22.52a27.57,27.57 0 0 1 1.73,-3.31c1.21,1.45 2.09,2.37 2.8,3.4c3.93,5.7 7.38,11.79 11.81,17.07c8.85,10.5 19.89,17.91 33.46,21.12z" class="cls-14"/>
  <path id="svg_29" stroke="#ae875f" fill="#af8760" stroke-width="0.5px" stroke-miterlimit="10" d="m671.71,161.77c-5.42,10 -9.56,20.38 -9.73,31.95a21.17,21.17 0 0 0 0.64,3.82c-3.53,4.08 -8.25,7.14 -10.57,12.33a6.57,6.57 0 0 0 3.12,-1.47c3.48,-2.92 6.81,-6 10.39,-8.79c2.72,-2.11 5.73,-3.87 8.64,-5.74a4.2,4.2 0 0 1 4.36,-0.54a11.94,11.94 0 0 1 -1.29,2.11c-3.79,3.86 -7.64,7.68 -11.45,11.53c-3.59,3.64 -7.26,7.22 -10.67,11c-1.22,1.35 -2.81,2.92 -1.88,5.21l-3.66,0.67l-1.85,-0.41c0,-0.8 0.32,-1.87 -0.08,-2.34a43.34,43.34 0 0 0 -5.89,-6.21c-4.72,-3.73 -9.74,-7.09 -14.51,-10.76c-2.9,-2.23 -6.15,-4.2 -7.93,-8.18c6.14,0.28 10.71,3.31 15.25,6.15s8.77,6 13.54,8.84c0.18,-0.91 0.37,-1.35 0.27,-1.43c-5.29,-4.19 -10.61,-8.34 -15.92,-12.5c1.62,-1.11 0.93,-2.55 0.72,-4c-0.89,-6.13 -4.38,-11.07 -7.44,-16.17c-1.83,-3.05 -4.36,-5.68 -6.38,-8.63a8,8 0 0 0 -7.59,-3.81a19.54,19.54 0 0 1 -3.13,-0.26c1.9,-0.14 3.8,-0.41 5.7,-0.41c4.35,0 8.7,0.2 13,0.15c5.51,-0.07 8.74,-3.5 11.09,-8c2,-3.74 3.77,-7.54 5.67,-11.3a19.08,19.08 0 0 1 1.48,-2c0,1.34 0.11,1.87 0.05,2.38c-1.09,10 7.94,16.33 14.75,16.88c3.78,0.26 7.59,-0.04 11.3,-0.07z" class="cls-15"/>
  <path id="svg_30" stroke="#ae875f" fill="#af8760" stroke-width="0.5px" stroke-miterlimit="10" d="m722.76,242.24c5.7,0.41 11.29,1 17,-1.05a41,41 0 0 0 20,-14.79c2.29,-3.15 4.09,-6.65 6.11,-10c3,4.66 5.76,9.47 9,13.93c3.7,5.07 8.88,8.49 14.36,11.43c0.65,0.35 1.23,0.79 1.85,1.19c-11.93,-1.58 -20.83,3.86 -28.71,12.08a50.69,50.69 0 0 0 -10,16a39.56,39.56 0 0 1 -17.18,-6.25c-8.19,-5.2 -12.34,-12.78 -12.43,-22.54z" class="cls-15"/>
  <path id="svg_31" stroke="#ae875f" fill="#af8760" stroke-width="0.5px" stroke-miterlimit="10" d="m535.29,230.37c1,3.77 1.68,7.63 3,11.28c1.89,5.23 4.11,10.38 8.53,14.1c7.94,6.67 16.87,7 26.28,3.95c2.83,-0.92 5.62,-2 8.43,-3a17.48,17.48 0 0 1 -2.81,9.41c-4.55,7.69 -11.61,12.24 -19.8,14.91c-5.49,1.79 -10.81,3.66 -15.37,7.29c0.18,-6.34 -2.59,-11.62 -6.16,-16.52c-6.22,-8.55 -14.94,-12.15 -25.29,-12.31c7.45,-5.34 14.64,-10.93 18.79,-19.44c1.54,-3.16 2.94,-6.43 4.4,-9.67z" class="cls-15"/>
  <path id="svg_32" fill="#af8760" d="m845.54,349.11a28,28 0 0 0 -3.27,-1.11c-10.35,-2.24 -16.61,-8.32 -16,-19.93a173.19,173.19 0 0 1 3.5,-24.46c2,-10.13 1.79,-20.47 -2.45,-30.11c-3.05,-6.92 -8.17,-12.56 -13.59,-17.83a25,25 0 0 1 -1.68,-2c14.63,7.69 24.9,22.36 23.41,39.07c-0.64,7.16 -3.19,13.75 -4.79,20.62c-1.21,5.23 -2.54,10.34 -2,16c0.67,7.59 7.52,14.22 15.07,15.14c3.18,0.38 6.4,0.52 10.12,0.81l-8.32,3.8z" class="cls-16"/>
  <path id="svg_33" fill="#af8760" d="m480.92,286.26c-0.65,4.29 -1.37,8.57 -1.92,12.88c-1.19,9.39 2.2,17.74 6.07,25.95c2.24,4.76 4.57,9.46 6.9,14.18c6.79,13.8 -3.76,27.49 -18.07,28.34c-0.41,0 -0.81,0.08 -1.37,0.14c0.41,0.63 0.71,1.11 1,1.58l-7.17,-2.33l0.09,-0.7a65.32,65.32 0 0 0 6.88,-0.88a22.27,22.27 0 0 0 12.08,-7.63c2.77,-3.31 3.15,-7.63 2.2,-11.65c-1.52,-6.41 -2.49,-13 -5.69,-19a48.56,48.56 0 0 1 -5.87,-18.46c-0.71,-7.94 0.17,-15.61 4.87,-22.42z" class="cls-16"/>
  <path id="svg_34" fill="#dec1b6" d="m786.63,371l2.37,-10.6c9.47,7.63 20.39,11.54 33.18,12.5c-1.65,3.19 -3.08,5.93 -4.5,8.67c-10.52,1.48 -19.43,-2.29 -27.61,-8.47a36.84,36.84 0 0 0 -3.44,-2.1z" class="cls-6"/>
  <path id="svg_35" fill="#dec1b6" d="m532.66,373.25l3.42,11c-1.26,-1 -2.12,-0.27 -3.11,0.57a86.56,86.56 0 0 1 -7.38,5.89c-5.06,3.42 -10.87,4.91 -16.79,6a10.44,10.44 0 0 0 -2,0.81l-4.59,-7.26c12.1,-2.96 22.6,-7.71 30.45,-17.01z" class="cls-6"/>
  <path id="svg_36" fill="#ae8760" d="m825.79,369.42c1.14,-1.62 -0.31,-2.05 -1.26,-2.61a14.76,14.76 0 0 1 -7.53,-10.58c-0.25,-1.51 -0.72,-3.5 1.93,-3.64a3.3,3.3 0 0 0 -0.39,4.11c2.58,4.88 7.12,7.21 11.73,9.5c1.39,0.7 2.86,1.24 4.29,1.85c0,0.31 -0.07,0.62 -0.11,0.94l-8.66,0.43z" class="cls-17"/>
  <path id="svg_37" fill="#ad8660" d="m502.25,374.33c0.38,4.33 -1.92,7.62 -4.3,10.84c-0.85,1.16 -0.38,1.47 0.68,1.71l-11.77,1.36l-0.21,-0.88c3,-1.74 6.27,-3.14 8.89,-5.32s4.46,-5.11 6.71,-7.71z" class="cls-18"/>
  <path id="svg_38" fill="#e2c6ba" d="m778.49,415.83c0.23,-3.34 0.26,-6.75 3.77,-9.22c0.08,1.52 0.12,3 0.23,4.56c0.15,2 0.34,4 0.51,6l-1.85,0.5l-2.66,-1.84z" class="cls-19"/>
  <path id="svg_39" fill="#dfc3b6" d="m543.63,427.54c-0.25,-2.38 -0.52,-4.76 -0.73,-7.14c-0.09,-1.07 -0.06,-2.16 -0.09,-3.76c2.78,1.19 2.78,3.4 3.64,5c0.68,1.28 1.4,2.53 2.09,3.8l-4,2.46l-0.91,-0.36z" class="cls-20"/>
  <path id="svg_40" stroke="#fde9db" fill="#fde9db" stroke-miterlimit="10" d="m597.21,593.83c2.64,-0.18 2.1,-2.28 2,-3.76c-0.19,-2.54 -0.78,-5.05 -1.2,-7.58q-3.39,-20.49 -6.77,-41c-1.53,-9.21 -3.1,-18.42 -4.63,-27.63c-0.16,-1 -0.13,-2 -0.24,-3.8c1.29,1.32 2.08,2 2.69,2.76a119.69,119.69 0 0 0 26.7,25.45c12.24,8.54 25.29,15.39 40.06,18.18c7.53,1.42 15.26,2.62 22.88,2.52a74.23,74.23 0 0 0 40.11,-12.26a79.38,79.38 0 0 0 24.5,-25c0.46,-0.75 1,-1.46 1.45,-2.12a3.47,3.47 0 0 1 0.64,0.13c0.11,0.06 0.25,0.17 0.27,0.27a3.42,3.42 0 0 1 0.07,0.9l-5,65.59a3.72,3.72 0 0 0 0.22,0.77l2.35,-0.27a28.4,28.4 0 0 0 -1.08,3.31c-0.26,1.31 -0.43,2.72 1.46,3.08c-8.53,5.94 -18.13,9.44 -28,12.18a185.51,185.51 0 0 1 -34.1,6.38a203,203 0 0 1 -29.7,0.73a193,193 0 0 1 -31.24,-4.43c-8.3,-1.93 -16.65,-4.08 -23.93,-8.91c1.93,-1.67 1.1,-3.59 0.49,-5.49z" class="cls-21"/>
  <path id="svg_41" fill="#fff" d="m743.73,593.38c-1.89,-0.36 -1.72,-1.77 -1.46,-3.08a28.4,28.4 0 0 1 1.08,-3.31q0.43,-4.95 0.85,-9.89c4.91,-0.51 9.16,1.93 13.68,3.14a37.89,37.89 0 0 1 5.34,2.22c1.48,0.64 2.53,1.59 2.14,3.42a397.62,397.62 0 0 1 -26.08,40.83c-1.16,1.56 -2.55,2.95 -3.83,4.42c-8.88,5.83 -18.88,8.45 -29.17,10.35c-17,3.13 -34.16,2.83 -51.3,2.17a194.52,194.52 0 0 1 -20.65,-2.37c-6.39,-0.94 -12.75,-2.15 -19.09,-3.41c-2.63,-0.52 -5.18,-1.46 -7.77,-2.21c-6.74,-8.06 -13.67,-16 -20.16,-24.23c-4.63,-5.9 -8.68,-12.26 -13,-18.42c1.07,-1 2,-2.3 3.25,-2.9c4.47,-2.15 9,-4.14 13.64,-6c1.17,-0.47 2.63,-0.28 3.95,-0.39l2,10.12c0.61,1.9 1.44,3.82 -0.48,5.5l-3.9,0.06c0.79,1.26 1,2.07 1.57,2.41a86.39,86.39 0 0 0 8.48,5.12c10.4,5.08 21.59,7.53 33,8.9c14.85,1.79 29.74,1.13 44.63,0.13a183.24,183.24 0 0 0 37.78,-6.25a80.3,80.3 0 0 0 27.77,-13.87a8.58,8.58 0 0 0 1.49,-2.31l-0.51,-0.8l-3.25,0.65z" class="cls-22"/>
  <path stroke="#907f6f" id="svg_42" fill="#907f6f" d="m661.59,516.71l1.6,-0.53c0.43,-0.66 0.86,-1.33 1.3,-2l1.27,2.09c0.4,-3.73 -1.11,-7.11 0.75,-10.77c2,3.61 1.07,7.12 1.78,10.68l2.05,-9.94c2.79,3.26 1.39,6.46 0.73,9.77l1.28,-0.19c2.48,2 5.34,1.43 8.15,1.19c6.34,-0.55 11.78,-3.57 17.29,-6.37c11,-5.56 20.68,-12.9 30.14,-20.66a279.81,279.81 0 0 0 28.82,-27.42a59.55,59.55 0 0 0 14.79,-27.56c1,-4.54 2,-9.09 2.85,-13.66c0.32,-1.7 0.94,-2.79 3.44,-2.72c-1.1,8.48 -2.06,16.81 -3.3,25.08a82.54,82.54 0 0 1 -3,14.07a33.58,33.58 0 0 1 -5.7,10.65c-5.78,6.92 -12.06,13.44 -18.27,20a437.58,437.58 0 0 1 -34.77,32.34a53.88,53.88 0 0 1 -28.66,12.34a173,173 0 0 1 -36.47,1c-10,-0.84 -18.69,-4.46 -26.76,-10c-16.8,-11.53 -32.4,-24.59 -47.61,-38.11a115.94,115.94 0 0 1 -12.34,-13.2a23.58,23.58 0 0 1 -4.33,-8.38c-2.39,-8.54 -4.35,-17.21 -6.44,-25.84c-0.6,-2.49 -1.12,-5 -1.59,-7.52a31.4,31.4 0 0 1 -0.29,-3.39c3,-0.28 3.26,1.6 3.78,3.34c1.78,5.92 3.19,12 5.54,17.67a58.39,58.39 0 0 0 13.68,20a267.7,267.7 0 0 0 29.63,24.39c12.91,9.24 26.17,17.92 41.48,22.72a65.8,65.8 0 0 0 13.27,2.37c1.88,0.18 3.92,-0.92 5.91,-1.44z" class="cls-23"/>
  <path id="svg_43" fill="#fff" d="m728.19,641.14a260.14,260.14 0 0 1 -28.94,31.77a39,39 0 0 1 -23.92,10.83c-9.85,0.82 -18.65,-2.19 -26.3,-8a259.81,259.81 0 0 1 -35.78,-33.3a10.64,10.64 0 0 1 2.89,-0.23c7.66,1.58 15.22,3.9 23,4.75c15.28,1.66 30.6,3.18 46.07,2.06c13.74,-1 27.27,-2.7 40.2,-7.78a8.85,8.85 0 0 1 2.78,-0.1z" class="cls-22"/>
  <path id="svg_44" stroke="#c9c8c9" fill="#c9c8c9" stroke-width="0.5px" stroke-miterlimit="10" d="m728.19,641.14a8.85,8.85 0 0 0 -2.83,0.1c-12.93,5.08 -26.46,6.79 -40.2,7.78c-15.47,1.12 -30.79,-0.4 -46.07,-2.06c-7.73,-0.85 -15.29,-3.17 -23,-4.75a10.64,10.64 0 0 0 -2.89,0.23l-5.78,-6.78c2.59,0.75 5.14,1.69 7.77,2.21c6.34,1.26 12.7,2.47 19.09,3.41a194.52,194.52 0 0 0 20.72,2.37c17.14,0.66 34.29,1 51.3,-2.17c10.29,-1.9 20.29,-4.52 29.17,-10.35l-7.28,10.01z" class="cls-24"/>
  <path id="svg_45" stroke="#dec1b6" stroke-width="0.5px" fill="#dec1b6" stroke-miterlimit="10" d="m643.22,428c1.87,-2.54 3.14,-4.53 4.68,-6.29c2.47,-2.83 5.06,-5.55 7.7,-8.22a20.55,20.55 0 0 1 3.87,-3.08a5.66,5.66 0 0 1 5.62,-0.24c3.94,1.84 14.32,11.25 16.83,15.41c-0.61,1.8 -2,2.41 -3.8,2.49c-7,0.35 -14,0.78 -21.08,1.1c-3.14,0.15 -6.29,0.21 -9.43,0.1c-1.22,-0.03 -2.41,-0.66 -4.39,-1.27z" class="cls-25"/>
  <path stroke="#8f7f6f" id="svg_46" fill="#8f7f6f" d="m668.88,456.4l-4.67,-3.86l1.47,-2.75c0.11,0.82 0.21,1.63 0.31,2.45a11,11 0 0 1 6.54,-4.56c13.8,-3.31 27.74,-5 41.94,-4.05c2.86,0.2 5.71,0.44 8.57,0.67c5.42,0.43 10.3,2 14,6.34a7.49,7.49 0 0 0 2.27,1.3c-1.65,3.76 -2.85,4.17 -6.66,2.29l3.06,-0.36c-0.86,-1.22 -1.26,-2.26 -2,-2.8c-2.82,-2 -5.83,-3.82 -9.44,-3.94c-5.85,-0.19 -11.74,-0.74 -17.55,-0.29a146.94,146.94 0 0 0 -36.42,8c-0.62,0.21 -0.97,1.03 -1.42,1.56z" class="cls-26"/>
  <path stroke="#8f7f6f" id="svg_47" fill="#8f7f6f" d="m662.91,450.61c0.3,0.77 1.07,1.79 0.82,2.28c-0.86,1.67 -1.59,3.66 -3.91,3.94c-1.28,-0.72 -2.48,-1.83 -3.85,-2.1c-6.77,-1.31 -13.54,-2.7 -20.38,-3.47a125,125 0 0 0 -16.2,-0.41a85.45,85.45 0 0 0 -14.32,1.1c-3.13,0.59 -6.1,2.38 -9,4c-1.68,0.94 -3.11,2.49 -2.29,4.86c-2.3,-0.62 -4.69,-1.14 -5,-4.16c1.09,0.81 1.91,1.05 3,-0.29c3.17,-3.92 7.6,-5.68 12.36,-6.94c10.12,-2.69 20.47,-2.79 30.8,-2.75c5.56,0 11.11,1 16.68,1.15c4.17,0.13 7.65,1.25 10.2,4.69c0.07,0.1 0.49,-0.08 0.83,-0.14l0.26,-1.76z" class="cls-26"/>
  <path id="svg_48" fill="#746557" d="m650.88,473.55c-11.58,-0.85 -21.24,-2.32 -30.13,-7a8.9,8.9 0 0 1 -2.66,-1.64a2.66,2.66 0 0 1 -0.38,-2.4c0.29,-0.52 1.51,-0.8 2.27,-0.72a7.63,7.63 0 0 1 2.45,1.1a74.79,74.79 0 0 0 37.57,8.54a166.17,166.17 0 0 0 17.55,-1.36a69.68,69.68 0 0 0 29.45,-10.91c1.31,-0.86 2.7,-2.35 4.39,-0.78c1.09,1 0.22,2.57 -2.15,4.12c-8.4,5.5 -17.88,7.9 -27.6,9.55a122.56,122.56 0 0 1 -30.76,1.5z" class="cls-27"/>
  <path id="svg_49" fill="#736456" d="m739.28,451.94a7.49,7.49 0 0 1 -2.27,-1.3c-3.67,-4.35 -8.55,-5.91 -14,-6.34c-2.86,-0.23 -5.71,-0.47 -8.57,-0.67c-14.2,-1 -28.14,0.74 -41.94,4.05a11,11 0 0 0 -6.54,4.56c-0.1,-0.82 -0.2,-1.63 -0.31,-2.45c0.38,-2.81 2.66,-3.62 4.83,-4.11c6.33,-1.42 12.65,-3.17 19.07,-3.76c9.61,-0.89 19.3,-1.1 28.95,-1.19c5.9,-0.05 11.8,0.76 17.06,3.84c2.81,1.63 4.87,3.72 3.72,7.37z" class="cls-28"/>
  <path id="svg_50" fill="#736456" d="m662.91,450.61l-0.22,1.74c-0.34,0.06 -0.76,0.24 -0.83,0.14c-2.55,-3.44 -6,-4.56 -10.2,-4.69c-5.57,-0.18 -11.12,-1.12 -16.68,-1.15c-10.33,0 -20.68,0.06 -30.8,2.75c-4.76,1.26 -9.19,3 -12.36,6.94c-1.08,1.34 -1.9,1.1 -3,0.29c-0.14,-3.39 2.06,-5.4 4.64,-6.65a40.78,40.78 0 0 1 10.17,-3.63a156.74,156.74 0 0 1 50.5,-0.82c3.4,0.47 7.54,0.47 8.78,5.08z" class="cls-28"/>
  <path id="svg_51" fill="#746558" d="m593.82,460.79c-0.82,-2.37 0.61,-3.92 2.29,-4.86c2.86,-1.6 5.83,-3.39 9,-4a85.45,85.45 0 0 1 14.32,-1.1a125,125 0 0 1 16.2,0.41c6.84,0.77 13.61,2.16 20.38,3.47c1.37,0.27 2.57,1.38 3.85,2.1a25,25 0 0 1 -4.67,-0.17c-14.18,-3.07 -28.43,-4.7 -42.95,-2.81c-5.78,0.75 -11.12,2.4 -15.73,6.11a7.77,7.77 0 0 1 -2.69,0.85z" class="cls-29"/>
  <path id="svg_52" fill="#736457" d="m668.88,456.4c0.45,-0.53 0.8,-1.35 1.37,-1.55a146.94,146.94 0 0 1 36.42,-8c5.81,-0.45 11.7,0.1 17.55,0.29c3.61,0.12 6.62,1.91 9.44,3.94c0.76,0.54 1.16,1.58 2,2.8l-3.06,0.36c-6.77,-4.38 -14.3,-5.07 -22.15,-5c-12.82,0.2 -25.13,2.9 -37.28,6.73a19.7,19.7 0 0 1 -4.29,0.43z" class="cls-30"/>
  <path id="svg_53" fill="#7f7062" d="m664.49,514.19c-0.44,0.66 -0.87,1.33 -1.3,2c-2.06,-3.64 -2.32,-5.36 -1.2,-9.82c1.67,2.73 2.67,5.05 2.5,7.82z" class="cls-31"/>
  <path id="svg_54" fill="#866547" d="m722.76,242.24c0.09,9.74 4.19,17.34 12.42,22.53a39.56,39.56 0 0 0 17.18,6.23c3,0.94 6.08,1.53 8.85,2.87c11.66,5.63 18.95,14.44 19.94,27.87a49.13,49.13 0 0 1 -1.1,15.2a52.72,52.72 0 0 0 -1,9c-0.12,2 -1.19,2.58 -2.92,2.62a34.4,34.4 0 0 1 -0.62,-4.59c0,-2.19 0.27,-4.38 0.42,-6.57c0.38,-4.51 1.08,-9 1.07,-13.53a29.9,29.9 0 0 0 -22,-28.77c-2.9,-0.8 -5.93,-1.16 -8.84,-1.94c-9.81,-2.64 -18,-7.49 -23.33,-16.59c-2.79,-4.82 -3.55,-10.18 -4.61,-15.48c0.61,-10 -2.92,-18.6 -10.81,-24.52c-12.24,-9.18 -24.81,-9.76 -40.85,-0.89a2.73,2.73 0 0 0 0.77,0.3a5.08,5.08 0 0 0 1.35,-0.06c10.61,-2 20.57,0.25 30.11,4.83c2.14,1 4.41,2.1 5.31,4.63c-6.46,-1.88 -12.82,-4.22 -19.4,-5.53a48.9,48.9 0 0 0 -28.65,2.84l-2.78,0.51c-0.93,-2.29 0.66,-3.86 1.88,-5.21c3.41,-3.81 7.08,-7.39 10.67,-11c3.81,-3.85 7.66,-7.67 11.45,-11.53a11.94,11.94 0 0 0 1.29,-2.11a4.2,4.2 0 0 0 -4.36,0.54c-2.91,1.87 -5.92,3.63 -8.64,5.74c-3.58,2.78 -6.91,5.87 -10.39,8.79a6.57,6.57 0 0 1 -3.12,1.47c2.32,-5.19 7,-8.25 10.57,-12.33c3.4,-2.22 6.69,-4.61 10.22,-6.57a11.7,11.7 0 0 1 5.56,-1.33c3.39,0 4.66,2 3.17,5.13a31.49,31.49 0 0 1 -4.51,6.7c-2.34,2.71 -5,5.15 -8.26,8.45c2.06,-0.67 3.25,-1 4.42,-1.44c13.13,-4.52 25.51,-3.34 36.73,5.18a27.83,27.83 0 0 1 11.11,18.47c0.51,3.36 1.13,6.72 1.7,10.09z" class="cls-32"/>
  <path id="svg_55" fill="#866547" d="m543.54,288.35c4.56,-3.63 9.88,-5.5 15.37,-7.29c8.19,-2.67 15.25,-7.22 19.8,-14.91a17.48,17.48 0 0 0 2.81,-9.41c0.08,-4.67 0.1,-9.33 0.26,-14c0.52,-15.6 7.62,-25.44 22.19,-30.73a35.35,35.35 0 0 1 20.84,-1.2a8.82,8.82 0 0 0 4.47,-0.23c-1.3,-1.08 -2.67,-2.08 -3.9,-3.24c-2.94,-2.77 -5.89,-5.53 -8.67,-8.45c-1.15,-1.21 -2,-2.9 -0.81,-4.55a4.59,4.59 0 0 1 5.26,-1.75c3.15,1 6.18,2.35 9.26,3.56c0.7,0.28 1.38,0.59 2.07,0.89c5.31,4.16 10.63,8.31 15.92,12.5c0.1,0.08 -0.09,0.52 -0.27,1.43c-4.77,-2.8 -9,-6 -13.54,-8.84s-9.11,-5.87 -15.25,-6.15c1.78,4 5,6 7.93,8.18c4.77,3.67 9.79,7 14.51,10.76a43.34,43.34 0 0 1 5.89,6.21c0.4,0.47 0.07,1.54 0.08,2.34a11.82,11.82 0 0 1 -2.24,-0.16a48.21,48.21 0 0 0 -27.22,-0.11c-6.59,2 -12.84,5.11 -19.24,7.72c0,-0.51 -0.16,-1.24 0.11,-1.5a34.35,34.35 0 0 1 11.12,-7.62a63.22,63.22 0 0 1 24.29,-4.18c-7.79,-3.27 -15.77,-5.73 -24.29,-3.64c-11.55,2.83 -20.06,9.11 -23.71,21.12c-1.33,4.4 -0.83,8.62 -0.68,13c-0.09,1.15 -0.17,2.31 -0.26,3.47l-0.52,7.42a29.6,29.6 0 0 1 -12.65,19.01a48.45,48.45 0 0 1 -13.38,6.43c-6,1.8 -11.64,4.13 -15.82,9.13a29.52,29.52 0 0 0 -6.95,24.44c1,6.52 2.95,12.9 4.47,19.35c0.1,3.51 0.08,3.53 -3.16,4.26c-1.66,-6.4 -3.41,-12.77 -4.93,-19.19a34.51,34.51 0 0 1 1.89,-22.89c2.04,-4.53 5.59,-7.75 8.95,-11.18z" class="cls-32"/>
  <path id="svg_56" fill="#fde9db" d="m653.27,223.21l2.78,-0.51a21.74,21.74 0 0 0 4.19,0c7.27,-1.36 14.36,-2.15 21.85,-0.29c12.17,3 20.73,9.91 26,21.15c1.65,3.55 3.21,7.15 4.77,10.74c4.55,10.53 11.09,19.27 21.74,24.34c4.62,2.2 9.23,4.43 13.88,6.57c7.3,3.37 11.62,9.36 14.71,16.46c0.71,1.63 0.28,2.62 -1.59,2.78c-0.75,-0.13 -1.5,-0.21 -2.23,-0.4c-22.41,-5.94 -44.58,-4.83 -66.53,2.27a17,17 0 0 0 -4.41,2.2a2.84,2.84 0 0 0 -0.92,2.31c0.35,2.42 4.29,5 6.72,4.59c2.08,-0.37 4.14,-0.86 6.22,-1.2c21.32,-3.52 42.73,-3.28 64.17,-1.52c2.15,3.85 1.17,7.93 0.92,11.95a5.52,5.52 0 0 1 -0.81,0.06l-6.46,0.29q-15.6,0.53 -31.18,1.06c-9.2,0.3 -18.39,0.51 -27.58,0.86c-8.89,0.33 -17.77,0.8 -26.65,1.18s-17.47,0.63 -26.21,1c-11.14,0.51 -22.27,1.14 -33.41,1.66c-8.59,0.4 -17.18,0.58 -25.76,1.08c-12.48,0.72 -25,1.63 -37.43,2.45a7,7 0 0 1 -0.91,-0.07c-0.65,-4.76 -1.47,-9.5 -1.92,-14.27c-0.82,-8.61 2.11,-15.92 8.23,-22c4.17,-4.13 9.53,-6.29 14.75,-8.6c8.55,-3.81 14.78,-9.84 18,-18.67a74.9,74.9 0 0 0 3.2,-12.17c1.75,-9.8 6.3,-18 14.41,-23.65c11.66,-8.13 24.45,-12.92 39.08,-10.69c1.54,0.24 3.2,-0.23 4.8,-0.37l3.58,-0.59zm-48.55,83a114.91,114.91 0 0 0 -49,6.92a28.17,28.17 0 0 0 -4.94,2.23a3.78,3.78 0 0 0 -1.56,4.75c0.62,1.82 2.22,1.79 3.79,1.58c1.19,-0.17 2.38,-0.4 3.57,-0.58c21.87,-3.31 43.79,-5.32 65.9,-2.7c2.64,0.31 6.1,-2.31 6.62,-4.84c0.34,-1.67 -1.2,-3 -4.71,-4a13.33,13.33 0 0 0 -1.77,-0.4l-17.9,-2.96z" class="cls-33"/>
  <path id="svg_57" fill="#dcd9d2" d="m646.87,353.72l-4.26,2l4.51,2.27a50.06,50.06 0 0 1 -5,23.95c-4.81,10 -12.05,17.84 -21.16,24.25c-7.73,5.43 -15.71,10.1 -24.78,12.84a47.64,47.64 0 0 1 -32.28,-1.4c-10.37,-4.1 -15.94,-12.61 -20.09,-22.21c-4.69,-10.86 -7.76,-22.11 -7.94,-34.14a27.75,27.75 0 0 1 3.13,-14.28c3.41,-6.24 9,-9.18 15.68,-10.31a100.3,100.3 0 0 1 12.15,-0.92c10.37,-0.45 20.74,-0.79 31.11,-1.21s20.45,-0.74 30.66,-1.34c7.11,-0.41 11.2,3.89 14.58,9.07a23.54,23.54 0 0 1 3.69,11.43zm-31.26,27.81l1,-0.87a14.18,14.18 0 0 0 -1.36,-3.07a48.71,48.71 0 0 0 -12.76,-12.07a14.33,14.33 0 0 0 -14.26,-1a27.17,27.17 0 0 0 -13.72,12.64a26.61,26.61 0 0 0 -1.18,4c7.66,-1.87 14.19,-5.16 21.53,-5.21s13.86,3.59 20.75,5.58z" class="cls-34"/>
  <path id="svg_58" fill="#dcd9d2" d="m672.91,356.73l4.18,-2.2l-3.79,-2.35c0.21,-7.64 2.42,-14.45 9,-19.12a11.79,11.79 0 0 1 5.75,-2.27c8.87,-0.5 17.76,-0.59 26.63,-0.94c8.42,-0.34 16.83,-0.84 25.25,-1.23c7.82,-0.36 15.74,-1.62 23.44,-0.78c12.74,1.39 20.13,8 21,22.32a75,75 0 0 1 0.12,10.38a92.43,92.43 0 0 1 -9.23,34.28c-4.46,8.95 -12,14.28 -21.58,17.41c-12.37,4 -24.23,2.19 -35.81,-2.28c-13.26,-5.12 -25.13,-12.49 -33.94,-24.06c-6.54,-8.65 -9.93,-18.44 -11.02,-29.16zm31.44,18.47l0.78,0.71c2.51,-1.22 5.07,-2.37 7.53,-3.69a28.75,28.75 0 0 1 22.77,-2.22c2.89,0.87 5.79,1.68 8.71,2.4a13.32,13.32 0 0 0 3,0.05c-2.86,-7.37 -10,-13.53 -17.76,-16.18c-5.43,-1.86 -10.08,-0.79 -14.31,2.82a39.5,39.5 0 0 0 -9.57,12.49a23.83,23.83 0 0 0 -1.15,3.62z" class="cls-34"/>
  <path id="svg_59" fill="#dec1b6" d="m761.56,304.47c1.87,-0.16 2.3,-1.15 1.59,-2.78c-3.09,-7.1 -7.41,-13.09 -14.71,-16.46c-4.65,-2.14 -9.26,-4.37 -13.88,-6.57c-10.65,-5.07 -17.19,-13.81 -21.74,-24.34c-1.56,-3.59 -3.12,-7.19 -4.77,-10.74c-5.23,-11.24 -13.79,-18.11 -26,-21.15c-7.49,-1.86 -14.58,-1.07 -21.85,0.29a21.74,21.74 0 0 1 -4.19,0a48.9,48.9 0 0 1 28.65,-2.84c6.58,1.31 12.94,3.65 19.4,5.53a68.58,68.58 0 0 1 14.12,15.71c1.06,5.3 1.82,10.66 4.61,15.48c5.28,9.1 13.52,13.95 23.33,16.59c2.91,0.78 5.94,1.14 8.84,1.94a29.9,29.9 0 0 1 22,28.77c0,4.51 -0.69,9 -1.07,13.53c-0.64,2.86 -1.28,5.72 -2,8.72l-8.51,-1.46c0.25,-4 1.23,-8.1 -0.92,-11.95c1.27,-0.61 3.11,-0.59 3,-2.7a4.23,4.23 0 0 0 -2.78,-4.22c-0.94,-0.44 -2.03,-0.9 -3.12,-1.35z" class="cls-6"/>
  <path id="svg_60" fill="#dec1b6" d="m649.61,223.88c-1.6,0.14 -3.26,0.61 -4.8,0.37c-14.63,-2.23 -27.42,2.56 -39.08,10.69c-8.11,5.65 -12.66,13.85 -14.41,23.65a74.9,74.9 0 0 1 -3.2,12.17c-3.18,8.83 -9.41,14.86 -18,18.67c-5.22,2.31 -10.58,4.47 -14.75,8.6c-6.12,6.06 -9,13.37 -8.23,22c0.45,4.77 1.27,9.51 1.92,14.27c-2.21,1.14 -4.41,2.33 -6.67,3.38c-0.41,0.19 -1.09,-0.2 -1.64,-0.31c-1.52,-6.45 -3.44,-12.83 -4.47,-19.35a29.52,29.52 0 0 1 6.95,-24.43c4.18,-5 9.86,-7.33 15.82,-9.13a48.45,48.45 0 0 0 13.42,-6.46a29.6,29.6 0 0 0 12.65,-19.07a8.81,8.81 0 0 0 0.52,-7.42c0.09,-1.16 0.17,-2.32 0.26,-3.48c3.12,-6.68 7.25,-12.58 13.16,-17.12c6.4,-2.61 12.65,-5.73 19.24,-7.72a48.21,48.21 0 0 1 27.22,0.11a11.82,11.82 0 0 0 2.24,0.16l1.85,0.42z" class="cls-6"/>
  <path id="svg_61" fill="#fde9db" d="m677.61,331.41c-5.17,5.52 -6.93,11.81 -7.86,18.49c-0.46,3.29 -0.61,3.35 -4,3.4c-4.8,0.07 -9.61,0.21 -14.83,0.33c-2.14,-7 -3.55,-14.77 -11.07,-20.16c7,-1.38 13.2,-1 19.34,-1.38s12.28,-0.47 18.42,-0.68z" class="cls-33"/>
  <path id="svg_62" fill="#8b8b8a" d="m532.65,353.37c0,4.66 0,9.14 0,13.62l-0.89,0.12a33.43,33.43 0 0 1 -1.58,-11.32c-0.03,-1.24 0.51,-2.28 2.47,-2.42z" class="cls-35"/>
  <path id="svg_63" fill="#8a8a89" d="m788.47,355a95,95 0 0 1 -1.28,-13.48c1.14,1.14 2,1.6 2,2.1c0.26,3.76 0.35,7.54 0.49,11.3l-1.21,0.08z" class="cls-36"/>
  <path id="svg_64" fill="#dec1b6" d="m758.23,325l6.46,-0.29l-6.46,0.29z" class="cls-6"/>
  <path id="svg_65" stroke-width="0.75px" stroke="#c9c9c9" fill="#c9c9c9" stroke-miterlimit="10" d="m743.73,593.38l3.21,-0.65l0.51,0.8a8.58,8.58 0 0 1 -1.49,2.31a80.3,80.3 0 0 1 -27.7,13.86a183.24,183.24 0 0 1 -37.78,6.3c-14.89,1 -29.78,1.66 -44.63,-0.13c-11.38,-1.37 -22.57,-3.82 -33,-8.9a86.39,86.39 0 0 1 -8.48,-5.12c-0.54,-0.34 -0.78,-1.15 -1.57,-2.41l3.9,-0.06c7.28,4.83 15.63,7 23.93,8.91a193,193 0 0 0 31.24,4.43a203,203 0 0 0 29.7,-0.73a185.51,185.51 0 0 0 34.1,-6.38c9.93,-2.79 19.53,-6.29 28.06,-12.23z" class="cls-37"/>
  <path stroke="#af8760" id="svg_66" fill="#af8760" d="m718.22,241.1a68.58,68.58 0 0 0 -14.12,-15.71c-0.9,-2.53 -3.17,-3.6 -5.31,-4.63c-9.54,-4.58 -19.5,-6.79 -30.11,-4.83a5.08,5.08 0 0 1 -1.35,0.06a2.73,2.73 0 0 1 -0.77,-0.3c16,-8.87 28.61,-8.29 40.85,0.89c7.89,5.92 11.42,14.49 10.81,24.52z" class="cls-16"/>
  <path stroke="#af8760" id="svg_67" fill="#af8760" d="m599.06,230.92c-5.91,4.54 -10,10.44 -13.16,17.12c-0.15,-4.32 -0.65,-8.54 0.68,-12.94c3.65,-12 12.16,-18.29 23.71,-21.12c8.52,-2.09 16.5,0.37 24.29,3.64a63.22,63.22 0 0 0 -24.29,4.18a34.35,34.35 0 0 0 -11.12,7.62c-0.27,0.26 -0.08,0.99 -0.11,1.5z" class="cls-16"/>
  <path id="svg_68" fill="#af8760" d="m585.64,251.52a8.81,8.81 0 0 1 -0.52,7.42q0.27,-3.7 0.52,-7.42z" class="cls-16"/>
  <path id="svg_69" fill="#706255" d="m761.56,304.47c1.09,0.45 2.18,0.91 3.28,1.33a4.23,4.23 0 0 1 2.78,4.22c0.07,2.11 -1.77,2.09 -3,2.7c-21.44,-1.76 -42.85,-2 -64.17,1.52c-2.08,0.34 -4.14,0.83 -6.22,1.2c-2.43,0.44 -6.37,-2.17 -6.72,-4.59a2.84,2.84 0 0 1 0.92,-2.31a17,17 0 0 1 4.41,-2.2c22,-7.1 44.12,-8.21 66.53,-2.27c0.69,0.19 1.44,0.27 2.19,0.4zm3.51,6.32c-1.05,-3.19 -1,-3.23 -2.89,-3.59c-2.8,-0.54 -5.59,-1.19 -8.41,-1.54c-18,-2.2 -36,-2.64 -53.82,2.17c-3.14,0.85 -6.25,1.83 -9.44,2.77c0.69,2.3 1.92,2 3.34,1.71c4.13,-0.81 8.26,-1.66 12.43,-2.17a245.44,245.44 0 0 1 29.21,-1.57c9.07,0 18,0.16 26.91,2.2a13.16,13.16 0 0 0 2.67,0.02z" class="cls-38"/>
  <path id="svg_70" fill="#706254" d="m604.72,306.18l17.87,2.93a13.33,13.33 0 0 1 1.77,0.4c3.51,1 5,2.36 4.71,4c-0.52,2.53 -4,5.15 -6.62,4.84c-22.11,-2.62 -44,-0.61 -65.9,2.7c-1.19,0.18 -2.38,0.41 -3.57,0.58c-1.57,0.21 -3.17,0.24 -3.79,-1.58a3.78,3.78 0 0 1 1.56,-4.75a28.17,28.17 0 0 1 4.94,-2.23a114.91,114.91 0 0 1 49.03,-6.89zm21.19,7.4a6.49,6.49 0 0 0 -1.62,-0.67c-7.77,-1 -15.54,-1.93 -23.33,-2.79a79.93,79.93 0 0 0 -23.82,1c-7.69,1.45 -15.25,3.51 -22.89,5.23c-1.93,0.43 -2.73,1.41 -2.65,3.22c8,-1.25 15.63,-2.57 23.33,-3.63c12.09,-1.68 24.22,-2.53 36.43,-1.37c3.61,0.34 7.23,0.59 10.85,0.85c1.45,0.08 3.05,0.4 3.7,-1.84z" class="cls-39"/>
  <path id="svg_71" fill="#6f5f50" d="m615.61,381.53c-6.89,-2 -13.32,-5.58 -20.79,-5.53s-13.87,3.34 -21.53,5.21a26.61,26.61 0 0 1 1.18,-4a27.17,27.17 0 0 1 13.72,-12.64a14.33,14.33 0 0 1 14.26,1a48.71,48.71 0 0 1 12.76,12.07a14.18,14.18 0 0 1 1.36,3.07l-0.96,0.82z" class="cls-40"/>
  <path id="svg_72" fill="#6f5f50" d="m704.35,375.2a23.83,23.83 0 0 1 1.14,-3.59a39.5,39.5 0 0 1 9.57,-12.49c4.23,-3.61 8.88,-4.68 14.31,-2.82c7.78,2.65 14.9,8.81 17.76,16.18a13.32,13.32 0 0 1 -3,-0.05c-2.92,-0.72 -5.82,-1.53 -8.71,-2.4a28.75,28.75 0 0 0 -22.77,2.19c-2.46,1.32 -5,2.47 -7.53,3.69l-0.77,-0.71z" class="cls-40"/>
  <path stroke="#8f7f6f" id="svg_73" fill="#8f7e6e" d="m765.07,310.79a13.16,13.16 0 0 1 -2.67,0c-8.87,-2 -17.84,-2.21 -26.91,-2.2a245.44,245.44 0 0 0 -29.21,1.57c-4.17,0.51 -8.3,1.36 -12.43,2.17c-1.42,0.28 -2.65,0.59 -3.34,-1.71c3.19,-0.94 6.3,-1.92 9.44,-2.77c17.77,-4.81 35.77,-4.37 53.82,-2.17c2.82,0.35 5.61,1 8.41,1.54c1.82,0.34 1.82,0.38 2.89,3.57z" class="cls-41"/>
  <path stroke="#8f7f6f" id="svg_74" fill="#8f7e6e" d="m625.91,313.58c-0.65,2.24 -2.25,1.92 -3.7,1.81c-3.62,-0.26 -7.24,-0.51 -10.85,-0.85c-12.21,-1.16 -24.34,-0.31 -36.43,1.37c-7.7,1.06 -15.36,2.38 -23.33,3.63c-0.08,-1.81 0.72,-2.79 2.65,-3.22c7.64,-1.72 15.2,-3.78 22.89,-5.23a79.93,79.93 0 0 1 23.82,-1c7.79,0.86 15.56,1.83 23.33,2.79a6.49,6.49 0 0 1 1.62,0.7z" class="cls-41"/>
  <path id="svg_76" fill="#c084fc" d="m246.29,1088.06s-0.28,6.48 51.13,19.65s88.58,20.87 88.58,20.87s146.6,23.3 210.81,20.86l94.77,-1.37l100.92,-8.13l99,-14.61l111.69,-24.68l71.62,-21.34l34.66,-15.76l-3.1,-4.78l-5.14,1l-138.12,17.89l-9.41,15.06l-34.84,3.77l-134.17,2.82l-311,11.77l-160.69,-36.76l-41.43,-34.81l-25.28,48.55z" class="cls-43"/>
  <path id="svg_77" stroke-width="4.43px" fill="none" stroke="#a855f7" stroke-miterlimit="10" d="m838.91334,367.09298c37,0.4 357.45,-143.85 435.68,166.37c76.39,302.92 10.11,483.44 -218.9,552.25c-416.06,125.02 -849.55,51.65 -985.29,-104.42c-112.85,-129.78 106.05,-347.8 449.44,-521.14" class="cls-44"/>
  <path stroke="#856547" id="svg_75" fill="#856547" d="m560.48,479.7c-5.67,0.81 -11.13,-0.34 -16.5,-1.93c-13.35,-4 -24.46,-11 -31.4,-23.51c-0.59,-1.48 -1.18,-2.95 -2.07,-5.21a6.83,6.83 0 0 0 0.75,6.3c0.28,1.27 0.56,2.54 0.82,3.75c-2.19,1.33 -3.4,-0.18 -4.65,-1.09a47.09,47.09 0 0 1 -16.05,-21.35c-0.55,-1.39 -1.12,-2.76 -1.68,-4.14c-1.95,-8.8 -2.55,-17.67 -0.76,-26.54c1,-4.86 2.53,-9.61 3.92,-14.79c-5.41,-0.52 -11.31,0.26 -17.84,-2.69c2.53,-1 4.06,-1.73 5.65,-2.25a36.09,36.09 0 0 0 13,-7.24a59.76,59.76 0 0 0 4.38,-4.92c-13.71,1.18 -26.17,0.23 -37.19,-7.37c-2.25,-1.55 -2.21,-1.61 -3.25,-4.44c1.28,0 2.39,0 3.49,0.05c5.64,0.32 11.06,0.15 16.19,-3c5.29,-3.2 7.23,-7.77 6.12,-13.42a101.42,101.42 0 0 0 -4.29,-13.8c-1.9,-5.41 -4.33,-10.65 -6,-16.13c-4,-13.31 -0.8,-25.4 7,-36.47c4.87,-6.88 11.21,-12.24 18.28,-16.75c4.47,-2.84 9,-5.6 13.47,-8.41a41.22,41.22 0 0 0 17,-21.19c2.57,-6.94 4.67,-14 7,-21.07c3.1,-9.38 7,-18.31 13.11,-26.23c9.69,-12.62 22.87,-19.44 37.92,-23.19a91.63,91.63 0 0 1 28.35,-2.37c3.47,0.22 7,0.33 10.42,0.44a8.15,8.15 0 0 0 8.49,-5.47a60.4,60.4 0 0 1 4.07,-8.6a80.22,80.22 0 0 1 7.13,-9.86c1.26,-1.49 3.32,-2.3 4.77,-3.26c2.26,1.43 1.35,2.67 0.94,3.95a14.8,14.8 0 0 0 1.49,13c3.77,6 9.08,8.64 16.12,7.75s14.34,-2.26 21.56,-2.69a80.48,80.48 0 0 1 39.3,7.16c12.33,5.75 21.56,15 28.25,26.67c3.75,6.55 6.84,13.47 10.2,20.24c1.14,2.3 2.16,4.66 3.28,7c5.28,10.88 13.21,19 24.41,23.91a128.52,128.52 0 0 1 15.86,7.75a84.7,84.7 0 0 1 14.86,11c11.48,11.12 15.85,24.77 12.43,40.55c-1.44,6.64 -3.35,13.18 -5,19.78a30.1,30.1 0 0 0 -0.73,4.92c-0.75,9.08 2.74,14.77 13.89,16.48c3.63,0.56 7.48,-0.32 11.23,-0.56c0.83,-0.05 1.66,-0.15 3.23,-0.3c-0.68,1.45 -0.86,2.58 -1.51,3.1c-2.93,2.36 -5.77,5 -9,6.72a50.73,50.73 0 0 1 -23.48,6.05c-1.33,0 -2.65,0.2 -4.37,0.35c2.77,4.23 6.68,6.21 10.74,7.75s10.43,1.77 14.49,3.46c-6,3.47 -14.9,4.41 -21.83,5.27c1,1.61 1.91,2.78 2.59,4.06c9.66,18.25 11.48,36.83 1.45,55.47c-2.46,4.56 -6.43,8.32 -9.86,12.3c-0.86,1 -2.35,1.42 -4.52,2.65c0.67,-4.21 1.14,-7.24 1.62,-10.26l-0.46,-0.17a14.78,14.78 0 0 0 -1,1.88c-5.31,14.69 -16.4,23.26 -30.31,28.69c-5.19,2 -10.48,4 -16.26,3.19c1,-1.44 1.93,-2.88 2.89,-4.33c1.46,1.73 3.29,1.28 5,0.68c4.25,-1.5 8.58,-2.85 12.65,-4.76c11.94,-5.62 20.17,-14.64 23.67,-27.52a117.12,117.12 0 0 0 2.27,-12.4c0.31,-1.95 0.23,-4 3.25,-4.82c3.8,7.34 0.57,15.15 1.15,22.8c17.44,-16.49 15.58,-47.31 4.2,-65.2c-0.66,1.37 -1.17,2.55 -1.79,3.68c-3.4,6.21 -6.5,12.62 -10.34,18.55s-9.4,10.86 -15.07,15.4c-5.05,4 -10.92,6.33 -16.73,8.82c0.09,-1.3 0.19,-2.61 0.29,-3.91l1.85,-0.5a52.21,52.21 0 0 0 5.39,-2.24c13.75,-7.6 23,-19.17 29.26,-33.35c1.42,-2.74 2.85,-5.48 4.5,-8.67c-12.79,-1 -23.71,-4.87 -33.18,-12.5l3,-1.95c10.14,7.16 21.31,11.13 33.82,11l8.7,-0.43c0,-0.32 0.08,-0.63 0.11,-0.94c-1.43,-0.61 -2.9,-1.15 -4.29,-1.85c-4.61,-2.29 -9.15,-4.62 -11.73,-9.5a3.3,3.3 0 0 1 0.39,-4.11a56.14,56.14 0 0 0 26.57,-3.48l8.29,-3.84c-3.72,-0.29 -6.94,-0.43 -10.12,-0.81c-7.55,-0.92 -14.4,-7.55 -15.07,-15.14c-0.5,-5.64 0.83,-10.75 2,-16c1.6,-6.87 4.15,-13.46 4.79,-20.62c1.49,-16.71 -8.78,-31.38 -23.41,-39.07a29.68,29.68 0 0 0 -4,-2.76c-5.63,-2.72 -11.33,-5.3 -17,-7.93c-0.62,-0.4 -1.2,-0.84 -1.85,-1.19c-5.48,-2.94 -10.66,-6.36 -14.36,-11.43c-3.26,-4.46 -6,-9.27 -9,-13.93c-4.27,-8.8 -8,-17.89 -13,-26.29c-3.23,-5.49 -7.76,-10.41 -12.41,-14.85c-10.36,-9.88 -23.54,-13.71 -37.34,-15.46a83.05,83.05 0 0 0 -15.77,-0.29c-5.22,0.35 -10.4,1.47 -15.59,2.25c-3.75,0 -7.52,0.33 -11.25,0c-6.81,-0.55 -15.84,-6.88 -14.75,-16.88c0.06,-0.51 0,-1 -0.05,-2.38a19.08,19.08 0 0 0 -1.48,2c-1.9,3.76 -3.72,7.56 -5.67,11.3c-2.35,4.5 -5.58,7.93 -11.09,8c-4.35,0 -8.7,-0.16 -13,-0.15c-1.9,0 -3.8,0.27 -5.7,0.41c-1.21,-0.06 -2.42,-0.22 -3.62,-0.16a84.47,84.47 0 0 0 -32.6,8.42a55.81,55.81 0 0 0 -19.21,15.49c-10.08,12.44 -13.79,27.56 -18,42.49c-1.46,3.24 -2.86,6.51 -4.41,9.71c-4.15,8.51 -11.34,14.1 -18.79,19.44c-4.33,2.63 -8.77,5.1 -13,7.93c-7.39,5 -14,10.7 -18.2,18.81c-4.7,6.81 -5.58,14.48 -4.87,22.44a48.56,48.56 0 0 0 5.87,18.46c3.2,6 4.17,12.57 5.69,19c0.95,4 0.57,8.34 -2.2,11.65a22.27,22.27 0 0 1 -12.08,7.63a65.32,65.32 0 0 1 -6.88,0.88l-0.09,0.7l7.18,2.33c4.76,0.69 9.5,1.59 14.28,2s9.44,-1.3 14.38,-0.44c0,1.39 0,2.42 0.05,3.45c-2.21,2.6 -4.12,5.55 -6.71,7.71s-5.9,3.58 -8.89,5.32l0.21,0.88l11.77,-1.35a14,14 0 0 0 2.68,-0.06c8.27,-1.81 16,-4.88 22.58,-10.33c2.23,-1.85 5.15,-3.19 6,-6.39c2.94,-0.61 3.16,-0.36 2.77,3.14c-7.85,9.3 -18.35,14.05 -30.46,17l4.59,7.26c6.39,10.89 14.77,19.85 25.95,25.87c3.39,1.83 7.25,2.78 10.89,4.14l0.93,0.37c0.19,1.19 0.37,2.37 0.56,3.55c-13.57,-3.21 -24.61,-10.62 -33.43,-21.14c-4.43,-5.28 -7.88,-11.37 -11.81,-17.07c-0.71,-1 -1.59,-1.95 -2.8,-3.4a27.57,27.57 0 0 0 -1.73,3.31c-2.51,7.29 -3.34,14.82 -3.71,22.52a48.4,48.4 0 0 0 4.13,22.44a44.94,44.94 0 0 0 11.53,16c-0.44,-8.16 -3.33,-15.73 0,-23.46a11,11 0 0 1 2.86,4.31c0.91,2.87 1.38,5.87 2.21,8.77c3.25,11.4 9.74,20.3 20.3,26c7.92,4.27 16.18,7.42 25.37,7.24l2.45,2.76z" class="cls-42"/>
  <path id="svg_22" stroke="#ae865f" fill="#bf9268" stroke-width="0.5px" stroke-miterlimit="10" d="m825.79,369.42c-12.51,0.16 -23.68,-3.81 -33.82,-11c0.22,-2.23 0.55,-4.47 0.61,-6.71a79.57,79.57 0 0 0 -0.13,-8.46c-0.17,-2.36 -1.55,-4 -4,-4c-2.29,-0.06 -3.51,-1.2 -4.38,-3.17a14.65,14.65 0 0 0 -7.88,-7.52c1.73,0 2.8,-0.64 2.92,-2.62a52.72,52.72 0 0 1 1,-9a49.13,49.13 0 0 0 1.1,-15.2c-1,-13.43 -8.28,-22.24 -19.94,-27.87c-2.77,-1.34 -5.89,-1.93 -8.86,-2.87a50.9,50.9 0 0 1 10,-16c7.79,-8.18 16.69,-13.62 28.59,-12c5.67,2.63 11.37,5.21 17,7.93a29.68,29.68 0 0 1 4,2.76a25,25 0 0 0 1.68,2c5.42,5.27 10.54,10.91 13.59,17.83c4.24,9.64 4.47,20 2.45,30.11a173.19,173.19 0 0 0 -3.5,24.46c-0.62,11.61 5.64,17.69 16,19.93a28,28 0 0 1 3.27,1.11a56.14,56.14 0 0 1 -26.49,3.46c-2.65,0.14 -2.18,2.13 -1.93,3.64a14.76,14.76 0 0 0 7.49,10.58c0.92,0.56 2.37,0.99 1.23,2.61z" class="cls-12"/>
 </g>
</svg>